<svg xmlns="http://www.w3.org/2000/svg" xmlns:xlink="http://www.w3.org/1999/xlink" xmlns:lucid="lucid" width="1561" height="1141"><g transform="translate(2540.5000000017417 -5039.499999998731)" lucid:page-tab-id="mtxc-.7NqXSL"><path d="M-3000 5000h2500v1500h-2500z" fill="#fff"/><path d="M-2540 5046a6 6 0 0 1 6-6h1548a6 6 0 0 1 6 6v1128a6 6 0 0 1-6 6h-1548a6 6 0 0 1-6-6z" stroke="#3a414a" fill="#fff"/><path d="M-2180 5366a6 6 0 0 1 6-6h1108a6 6 0 0 1 6 6v368a6 6 0 0 1-6 6h-1108a6 6 0 0 1-6-6z" fill="#f2f3f5"/><path d="M-2144.7 5360h2.94m14.66 0h29.3m14.67 0h2.93m14.65 0h29.32m14.65 0h2.93m14.66 0h29.32m14.66 0h2.93m14.67 0h29.3m14.66 0h2.94m14.65 0h29.3m14.67 0h2.92m14.66 0h29.3m14.67 0h2.93m14.65 0h29.32m14.65 0h2.93m14.66 0h29.3m14.66 0h2.93m14.64 0h29.32m14.65 0h2.94m14.66 0h29.3m14.67 0h2.93m14.65 0h29.32m14.65 0h2.93m14.66 0h29.32m14.66 0h2.93m14.67 0h29.3m14.66 0h2.94m14.65 0h29.3m14.67 0h2.92m14.66 0h29.3m14.67 0h2.93m14.65 0h29.32m14.65 0h2.93m14.66 0h29.3m14.66 0h2.93m14.64 0h14.66l.94.07.9.22.88.35.8.5.72.6.6.72.5.8.37.88.23.9.07.95v14.6m0 14.6v2.93m0 14.6v29.2m0 14.6v2.93m0 14.6v29.2m0 14.6v2.93m0 14.6v29.2m0 14.6v2.93m0 14.6v29.2m0 14.6v2.93m0 14.6v29.2m0 14.6v2.93m0 14.6v14.6l-.07.94-.22.9-.35.88-.5.8-.6.72-.72.6-.8.5-.88.37-.9.23-.95.07h-14.66m-14.65 0h-2.94m-14.66 0h-29.3m-14.67 0h-2.93m-14.65 0h-29.32m-14.65 0h-2.93m-14.66 0h-29.32m-14.66 0h-2.93m-14.67 0h-29.3m-14.66 0h-2.94m-14.65 0h-29.3m-14.67 0h-2.92m-14.66 0h-29.3m-14.67 0h-2.93m-14.65 0h-29.32m-14.65 0h-2.93m-14.66 0h-29.3m-14.66 0h-2.93m-14.64 0h-29.32m-14.65 0h-2.94m-14.66 0h-29.3m-14.67 0h-2.93m-14.65 0h-29.32m-14.65 0h-2.93m-14.66 0h-29.32m-14.66 0h-2.93m-14.67 0h-29.3m-14.66 0h-2.94m-14.65 0h-29.3m-14.67 0h-2.92m-14.66 0h-29.3m-14.67 0h-2.93m-14.65 0h-29.32m-14.65 0h-2.93m-14.66 0h-29.3m-14.66 0h-2.93m-14.64 0H-2174l-.94-.07-.9-.22-.88-.35-.8-.5-.72-.6-.6-.72-.5-.8-.37-.88-.23-.9-.07-.95v-14.6m0-14.6v-2.93m0-14.6v-29.2m0-14.6v-2.93m0-14.6v-29.2m0-14.6v-2.93m0-14.6v-29.2m0-14.6v-2.93m0-14.6v-29.2m0-14.6v-2.93m0-14.6v-29.2m0-14.6v-2.93m0-14.6V5366l.07-.94.22-.9.35-.88.5-.8.6-.72.72-.6.8-.5.88-.37.9-.23.95-.07h14.66" stroke="#3a414a" stroke-width="3" fill="none"/><use xlink:href="#a" transform="matrix(1,0,0,1,-2160,5380) translate(0 17.77777777777778)"/><use xlink:href="#b" transform="matrix(1,0,0,1,-2160,5380) translate(62.96296296296296 17.77777777777778)"/><path d="M-1960 5426a6 6 0 0 1 6-6h588a6 6 0 0 1 6 6v288a6 6 0 0 1-6 6h-588a6 6 0 0 1-6-6z" stroke="#3a414a" stroke-width="3" fill="#fff"/><use xlink:href="#c" transform="matrix(1,0,0,1,-1955,5425) translate(184.90740740740745 26.666666666666657)"/><use xlink:href="#d" transform="matrix(1,0,0,1,-1955,5425) translate(279.35185185185185 26.666666666666657)"/><use xlink:href="#e" transform="matrix(1,0,0,1,-1955,5425) translate(386.5740740740741 26.666666666666657)"/><path d="M-1940 5536a6 6 0 0 1 6-6h248a6 6 0 0 1 6 6v100a6 6 0 0 1-6 6h-248a6 6 0 0 1-6-6z" stroke="#3a414a" stroke-width="3" fill="#f2f3f5"/><use xlink:href="#f" transform="matrix(1,0,0,1,-1940.0000000000002,5530) translate(8.01 31.676666666666655)"/><use xlink:href="#g" transform="matrix(1,0,0,1,-1940.0000000000002,5530) translate(94.86185185185182 31.676666666666655)"/><path d="M-1640 5536a6 6 0 0 1 6-6h248a6 6 0 0 1 6 6v100a6 6 0 0 1-6 6h-248a6 6 0 0 1-6-6z" stroke="#3a414a" stroke-width="3" fill="#f2f3f5"/><use xlink:href="#f" transform="matrix(1,0,0,1,-1640,5530) translate(8.01 31.676666666666655)"/><use xlink:href="#h" transform="matrix(1,0,0,1,-1640,5530) translate(94.86185185185182 31.676666666666655)"/><path d="M-2460 6000a12.8 12.8 0 0 1 4.6-9.84l7.6-6.32a16.57 16.57 0 0 1 10.6-3.84h331.2a6 6 0 0 1 6 6v111.2a16.57 16.57 0 0 1-3.84 10.6l-6.32 7.6a12.8 12.8 0 0 1-9.84 4.6h-334a6 6 0 0 1-6-6z" stroke="#3a414a" stroke-width="3" fill="#fff"/><path d="M-2454 5994a2.17 2.17 0 0 1-1.4-3.84l7.6-6.32a16.57 16.57 0 0 1 10.6-3.84h331.2a2.48 2.48 0 0 1 1.76 4.24l-5.52 5.52A14.48 14.48 0 0 1-2120 5994z" stroke="#3a414a" stroke-width="3" fill="#e6e6e6"/><path d="M-2114 6000a14.48 14.48 0 0 1 4.24-10.24l5.52-5.52a2.48 2.48 0 0 1 4.24 1.76v111.2a16.57 16.57 0 0 1-3.84 10.6l-6.32 7.6a2.17 2.17 0 0 1-3.84-1.4z" stroke="#3a414a" stroke-width="3" fill="#ccc"/><use xlink:href="#i" transform="matrix(1,0,0,1,-2452,6002) translate(0 26.666666666666657)"/><use xlink:href="#e" transform="matrix(1,0,0,1,-2452,6002) translate(162.68518518518513 26.666666666666657)"/><path d="M-1940 6000a12.8 12.8 0 0 1 4.6-9.84l7.6-6.32a16.57 16.57 0 0 1 10.6-3.84h331.2a6 6 0 0 1 6 6v111.2a16.57 16.57 0 0 1-3.84 10.6l-6.32 7.6a12.8 12.8 0 0 1-9.84 4.6h-334a6 6 0 0 1-6-6z" stroke="#3a414a" stroke-width="3" fill="#fff"/><path d="M-1934 5994a2.17 2.17 0 0 1-1.4-3.84l7.6-6.32a16.57 16.57 0 0 1 10.6-3.84h331.2a2.48 2.48 0 0 1 1.76 4.24l-5.52 5.52A14.48 14.48 0 0 1-1600 5994z" stroke="#3a414a" stroke-width="3" fill="#e6e6e6"/><path d="M-1594 6000a14.48 14.48 0 0 1 4.24-10.24l5.52-5.52a2.48 2.48 0 0 1 4.24 1.76v111.2a16.57 16.57 0 0 1-3.84 10.6l-6.32 7.6a2.17 2.17 0 0 1-3.84-1.4z" stroke="#3a414a" stroke-width="3" fill="#ccc"/><use xlink:href="#i" transform="matrix(1,0,0,1,-1932,6002) translate(0 26.666666666666657)"/><use xlink:href="#j" transform="matrix(1,0,0,1,-1932,6002) translate(162.68518518518513 26.666666666666657)"/><path d="M-1440 6000a12.8 12.8 0 0 1 4.6-9.84l7.6-6.32a16.57 16.57 0 0 1 10.6-3.84h331.2a6 6 0 0 1 6 6v111.2a16.57 16.57 0 0 1-3.84 10.6l-6.32 7.6a12.8 12.8 0 0 1-9.84 4.6h-334a6 6 0 0 1-6-6z" stroke="#3a414a" stroke-width="3" fill="#fff"/><path d="M-1434 5994a2.17 2.17 0 0 1-1.4-3.84l7.6-6.32a16.57 16.57 0 0 1 10.6-3.84h331.2a2.48 2.48 0 0 1 1.76 4.24l-5.52 5.52A14.48 14.48 0 0 1-1100 5994z" stroke="#3a414a" stroke-width="3" fill="#e6e6e6"/><path d="M-1094 6000a14.48 14.48 0 0 1 4.24-10.24l5.52-5.52a2.48 2.48 0 0 1 4.24 1.76v111.2a16.57 16.57 0 0 1-3.84 10.6l-6.32 7.6a2.17 2.17 0 0 1-3.84-1.4z" stroke="#3a414a" stroke-width="3" fill="#ccc"/><use xlink:href="#i" transform="matrix(1,0,0,1,-1432,6002) translate(0 26.666666666666657)"/><use xlink:href="#k" transform="matrix(1,0,0,1,-1432,6002) translate(162.68518518518513 26.666666666666657)"/><path d="M-2300 5120a12.8 12.8 0 0 1 4.6-9.84l7.6-6.32a16.57 16.57 0 0 1 10.6-3.84h331.2a6 6 0 0 1 6 6v111.2a16.57 16.57 0 0 1-3.84 10.6l-6.32 7.6a12.8 12.8 0 0 1-9.84 4.6h-334a6 6 0 0 1-6-6z" stroke="#3a414a" stroke-width="3" fill="#fff"/><path d="M-2294 5114a2.17 2.17 0 0 1-1.4-3.84l7.6-6.32a16.57 16.57 0 0 1 10.6-3.84h331.2a2.48 2.48 0 0 1 1.76 4.24l-5.52 5.52A14.48 14.48 0 0 1-1960 5114z" stroke="#3a414a" stroke-width="3" fill="#e6e6e6"/><path d="M-1954 5120a14.48 14.48 0 0 1 4.24-10.24l5.52-5.52a2.48 2.48 0 0 1 4.24 1.76v111.2a16.57 16.57 0 0 1-3.84 10.6l-6.32 7.6a2.17 2.17 0 0 1-3.84-1.4z" stroke="#3a414a" stroke-width="3" fill="#ccc"/><use xlink:href="#l" transform="matrix(1,0,0,1,-2292,5122) translate(0 26.666666666666657)"/><use xlink:href="#e" transform="matrix(1,0,0,1,-2292,5122) translate(144.2592592592592 26.666666666666657)"/><path d="M-1670 5120a12.8 12.8 0 0 1 4.6-9.84l7.6-6.32a16.57 16.57 0 0 1 10.6-3.84h331.2a6 6 0 0 1 6 6v111.2a16.57 16.57 0 0 1-3.84 10.6l-6.32 7.6a12.8 12.8 0 0 1-9.84 4.6h-334a6 6 0 0 1-6-6z" stroke="#3a414a" stroke-width="3" fill="#fff"/><path d="M-1664 5114a2.17 2.17 0 0 1-1.4-3.84l7.6-6.32a16.57 16.57 0 0 1 10.6-3.84h331.2a2.48 2.48 0 0 1 1.76 4.24l-5.52 5.52A14.48 14.48 0 0 1-1330 5114z" stroke="#3a414a" stroke-width="3" fill="#e6e6e6"/><path d="M-1324 5120a14.48 14.48 0 0 1 4.24-10.24l5.52-5.52a2.48 2.48 0 0 1 4.24 1.76v111.2a16.57 16.57 0 0 1-3.84 10.6l-6.32 7.6a2.17 2.17 0 0 1-3.84-1.4z" stroke="#3a414a" stroke-width="3" fill="#ccc"/><use xlink:href="#l" transform="matrix(1,0,0,1,-1662,5122) translate(0 26.666666666666657)"/><use xlink:href="#j" transform="matrix(1,0,0,1,-1662,5122) translate(144.2592592592592 26.666666666666657)"/><path d="M-1883.6 5376.82l11.15 9.97 8.78 8.54 7.27 7.7 6.22 7.16 5.4 6.8 4.8 6.54 4.26 6.4 3.84 6.3 3.46 6.25 3.13 6.27 2.85 6.34 2.57 6.45 2.3 6.6 2.08 6.78 1.82 7.03 1.58 7.33 1.3 7.68 1.06 8.14.23 2.66-2.95.26-.22-2.6-1.03-8.02-1.3-7.57-1.55-7.2-1.8-6.92-2.02-6.67-2.27-6.48-2.52-6.32-2.8-6.23-3.07-6.16-3.4-6.16-3.78-6.18-4.2-6.3-4.72-6.44-5.33-6.7-6.13-7.06-7.2-7.6-8.68-8.47-11-9.85-61.56-46.63h4.9zm-161.52-131.88l11.16 11.82 12.78 12.44 15.27 13.68 18.16 14.92h-4.64l-15.45-12.7-15.37-13.74-12.86-12.53-11.24-11.9-9.06-10.45 2.23-1.93z" stroke="#3a414a" stroke-width=".05" fill="#3a414a"/><path d="M-2054.1 5234.57l-2.24 1.94-1-1.15 2.22-1.94z" stroke="#3a414a" stroke-width=".05" fill="#3a414a"/><path d="M-1810.23 5523.65l-5.3-14.03 9.25-.44z" fill="#3a414a"/><path d="M-1810 5528.42l-7.64-20.18 13.32-.63zm-3.44-17.42l2.98 7.88 2.22-8.13z" stroke="#3a414a" stroke-width=".05" fill="#3a414a"/><use xlink:href="#m" transform="matrix(1,0,0,1,-2044.492821306322,5297.804162202773) translate(0 23.111111111111114)"/><use xlink:href="#n" transform="matrix(1,0,0,1,-2044.492821306322,5297.804162202773) translate(65.80246913580247 23.111111111111114)"/><path d="M-1496.6 5367l-36.38 48.98-5.5 8.65-4.42 7.65-3.74 7.14-3.24 6.9-2.87 6.82-2.55 6.86-2.28 7-2 7.23-1.8 7.55-1.5 7.98-1.26 8.5-.96 9.2-.04.53-2.94-.2.04-.6.97-9.3 1.27-8.63 1.55-8.1 1.8-7.68 2.05-7.35 2.3-7.12 2.6-6.97 2.92-6.94 3.3-7 3.8-7.26 4.48-7.76 5.6-8.8 36.4-49.02 6.06-8.7h3.6zm41.34-123.97l-.2 9.63-.63 10.13-.97 9.3-1.27 8.63-1.54 8.1-1.8 7.68-2.05 7.35-2.3 7.12-2.6 6.97-1.68 3.97h-3.2l2.12-5.04 2.55-6.86 2.27-7 2.02-7.23 1.77-7.55 1.52-7.98 1.26-8.5.97-9.2.63-10 .2-9.57z" stroke="#3a414a" stroke-width=".05" fill="#3a414a"/><path d="M-1455.26 5243.07l-2.95-.06.02-1.5h2.96z" fill="#3a414a"/><path stroke="#3a414a" stroke-width=".05" fill="#3a414a"/><path d="M-1562.04 5509.58l-5.2 14.07-4.06-14.44z" fill="#3a414a"/><path d="M-1559.95 5508.2l-7.48 20.22-5.84-20.77zm-7.1 10.68l2.92-7.9-5.2-.2z" stroke="#3a414a" stroke-width=".05" fill="#3a414a"/><use xlink:href="#m" transform="matrix(1,0,0,1,-1557.4497008777098,5321.914257741385) translate(0 23.111111111111114)"/><use xlink:href="#n" transform="matrix(1,0,0,1,-1557.4497008777098,5321.914257741385) translate(65.80246913580247 23.111111111111114)"/><path d="M-1898 5645l-.2 9.47-.63 10.17-1 9.5-1.32 8.95-1.6 8.45-1.9 8.07-2.16 7.74-2.44 7.46-2.7 7.25-2.96 7.07-3.27 6.94-3.6 6.86-3.93 6.83-4.34 6.84-4.8 6.9-5.34 7.04-5.98 7.22-6.77 7.53-7.8 7.94-9.14 8.57-11.06 9.55-14.1 11.15-20.05 14.53-133.7 89.55-19.3 15.27-16.05 13.84-13.1 12.3" stroke="#3a414a" stroke-width="3" stroke-linejoin="round" fill="none"/><path d="M-1896.52 5645.07l-2.95-.06.03-1.5h2.95z" stroke="#3a414a" stroke-width=".05" fill="#3a414a"/><path d="M-2208.28 5979.25l6.68-13.43 6.62 6.5z" stroke="#3a414a" stroke-width="3" fill="#3a414a"/><use xlink:href="#o" transform="matrix(1,0,0,1,-2139.883330611111,5914.641947400854) translate(0 23.111111111111114)"/><use xlink:href="#n" transform="matrix(1,0,0,1,-2139.883330611111,5914.641947400854) translate(54.5679012345679 23.111111111111114)"/><path d="M-2231.52 5981.65c0 .83-.67 1.5-1.5 1.5-.82 0-1.5-.67-1.5-1.5 0-.82.68-1.5 1.5-1.5.83 0 1.5.68 1.5 1.5zm8.47-8.46c0 .8-.67 1.5-1.5 1.5s-1.5-.7-1.5-1.5c0-.84.67-1.5 1.5-1.5s1.5.66 1.5 1.5zm8.7-8.25c0 .83-.68 1.5-1.5 1.5-.83 0-1.5-.67-1.5-1.5s.67-1.5 1.5-1.5c.82 0 1.5.67 1.5 1.5zm8.83-8.08c0 .83-.67 1.5-1.5 1.5s-1.5-.67-1.5-1.5.67-1.5 1.5-1.5 1.5.67 1.5 1.5zm9.15-7.73c0 .83-.67 1.5-1.5 1.5s-1.5-.67-1.5-1.5.67-1.5 1.5-1.5 1.5.67 1.5 1.5zm9.25-7.6c0 .82-.68 1.5-1.5 1.5-.83 0-1.5-.68-1.5-1.5 0-.84.67-1.5 1.5-1.5.82 0 1.5.66 1.5 1.5zm9.46-7.35c0 .82-.67 1.5-1.5 1.5s-1.5-.68-1.5-1.5c0-.84.67-1.5 1.5-1.5s1.5.66 1.5 1.5zm9.55-7.23c0 .83-.68 1.5-1.5 1.5-.84 0-1.5-.67-1.5-1.5s.66-1.5 1.5-1.5c.82 0 1.5.67 1.5 1.5zm9.76-6.93c0 .83-.67 1.5-1.5 1.5s-1.5-.67-1.5-1.5.67-1.5 1.5-1.5 1.5.67 1.5 1.5zm9.77-6.93c0 .84-.67 1.5-1.5 1.5s-1.5-.66-1.5-1.5c0-.82.67-1.5 1.5-1.5s1.5.68 1.5 1.5zm10-6.6c0 .84-.68 1.5-1.5 1.5-.84 0-1.5-.66-1.5-1.5 0-.82.66-1.5 1.5-1.5.82 0 1.5.68 1.5 1.5zm10.06-6.48c0 .83-.68 1.5-1.5 1.5-.84 0-1.5-.67-1.5-1.5s.66-1.5 1.5-1.5c.82 0 1.5.67 1.5 1.5zm10.05-6.5c0 .84-.67 1.5-1.5 1.5-.82 0-1.5-.66-1.5-1.5 0-.8.68-1.5 1.5-1.5.83 0 1.5.7 1.5 1.5zm10.07-6.47c0 .82-.67 1.5-1.5 1.5s-1.5-.68-1.5-1.5c0-.83.67-1.5 1.5-1.5s1.5.67 1.5 1.5zm10.08-6.48c0 .83-.67 1.5-1.5 1.5s-1.5-.67-1.5-1.5c0-.82.67-1.5 1.5-1.5s1.5.68 1.5 1.5zm10.12-6.4c0 .83-.67 1.5-1.5 1.5s-1.5-.67-1.5-1.5c0-.82.67-1.5 1.5-1.5s1.5.68 1.5 1.5zm10.13-6.4c0 .83-.68 1.5-1.5 1.5-.83 0-1.5-.67-1.5-1.5 0-.82.67-1.5 1.5-1.5.82 0 1.5.68 1.5 1.5zm10.12-6.4c0 .84-.67 1.5-1.5 1.5s-1.5-.66-1.5-1.5c0-.82.67-1.5 1.5-1.5s1.5.68 1.5 1.5zm10.12-6.4c0 .84-.68 1.5-1.5 1.5-.84 0-1.5-.66-1.5-1.5 0-.82.66-1.5 1.5-1.5.82 0 1.5.68 1.5 1.5zm10.12-6.4c0 .84-.67 1.5-1.5 1.5s-1.5-.66-1.5-1.5c0-.82.67-1.5 1.5-1.5s1.5.68 1.5 1.5zm10.12-6.4c0 .84-.67 1.5-1.5 1.5s-1.5-.66-1.5-1.5c0-.82.67-1.5 1.5-1.5s1.5.68 1.5 1.5zm10.13-6.4c0 .84-.68 1.5-1.5 1.5-.83 0-1.5-.66-1.5-1.5 0-.82.67-1.5 1.5-1.5.82 0 1.5.68 1.5 1.5zm9.77-6.9c0 .82-.67 1.5-1.5 1.5s-1.5-.68-1.5-1.5c0-.84.67-1.5 1.5-1.5s1.5.66 1.5 1.5zm9.76-6.94c0 .82-.67 1.5-1.5 1.5s-1.5-.68-1.5-1.5c0-.83.67-1.5 1.5-1.5s1.5.67 1.5 1.5zm9.47-7.34c0 .82-.67 1.5-1.5 1.5s-1.5-.68-1.5-1.5c0-.84.67-1.5 1.5-1.5s1.5.66 1.5 1.5zm9.3-7.56c0 .83-.68 1.5-1.5 1.5-.84 0-1.5-.67-1.5-1.5s.66-1.5 1.5-1.5c.82 0 1.5.67 1.5 1.5zm9.03-7.86c0 .83-.68 1.5-1.5 1.5-.83 0-1.5-.67-1.5-1.5s.67-1.5 1.5-1.5c.82 0 1.5.67 1.5 1.5zm8.7-8.22c0 .83-.67 1.5-1.5 1.5-.82 0-1.5-.67-1.5-1.5s.68-1.5 1.5-1.5c.83 0 1.5.67 1.5 1.5zm8.33-8.6c0 .82-.67 1.5-1.5 1.5s-1.5-.68-1.5-1.5c0-.83.67-1.5 1.5-1.5s1.5.67 1.5 1.5zm7.9-9c0 .83-.67 1.5-1.5 1.5s-1.5-.67-1.5-1.5.67-1.5 1.5-1.5 1.5.67 1.5 1.5zm7.4-9.4c0 .82-.66 1.5-1.5 1.5-.82 0-1.5-.68-1.5-1.5 0-.84.68-1.5 1.5-1.5.84 0 1.5.66 1.5 1.5zm6.8-9.87c0 .82-.67 1.5-1.5 1.5s-1.5-.68-1.5-1.5c0-.84.67-1.5 1.5-1.5s1.5.66 1.5 1.5zm6.23-10.24c0 .83-.67 1.5-1.5 1.5s-1.5-.67-1.5-1.5.67-1.5 1.5-1.5 1.5.67 1.5 1.5zm5.48-10.64c0 .83-.67 1.5-1.5 1.5-.82 0-1.5-.67-1.5-1.5s.68-1.5 1.5-1.5c.83 0 1.5.67 1.5 1.5zm4.83-10.96c0 .83-.68 1.5-1.5 1.5-.83 0-1.5-.67-1.5-1.5s.67-1.5 1.5-1.5c.82 0 1.5.67 1.5 1.5zm4.06-11.26c0 .82-.67 1.5-1.5 1.5s-1.5-.68-1.5-1.5c0-.83.67-1.5 1.5-1.5s1.5.67 1.5 1.5zm3.35-11.5c0 .83-.68 1.5-1.5 1.5-.83 0-1.5-.67-1.5-1.5s.67-1.5 1.5-1.5c.82 0 1.5.67 1.5 1.5zm2.62-11.68c0 .82-.68 1.5-1.5 1.5-.83 0-1.5-.68-1.5-1.5 0-.83.67-1.5 1.5-1.5.82 0 1.5.67 1.5 1.5zm1.97-11.8c0 .8-.67 1.48-1.5 1.48s-1.5-.67-1.5-1.5c0-.82.67-1.5 1.5-1.5s1.5.68 1.5 1.5zm1.25-11.92c0 .82-.67 1.5-1.5 1.5s-1.5-.68-1.5-1.5c0-.83.67-1.5 1.5-1.5s1.5.67 1.5 1.5z" fill="#3a414a"/><path d="M-2233 5981.63l-1.08 1.1" stroke="#3a414a" stroke-width="3" fill="none"/><path d="M-1912.02 5648.35l4.03 14.45-9.25-.4z" stroke="#3a414a" stroke-width="3" fill="#3a414a"/><use xlink:href="#p" transform="matrix(1,0,0,1,-2220.1808775646546,5848.474436964151) translate(0 23.111111111111114)"/><path d="M-1755.76 5645l-.58 28.86-1.52 24.36-2.15 20.58-2.7 18.3-3.32 17.37-4.3 18.28-7.9 27.92-14.18 48.58-4.3 18.28-3.3 17.37-2.7 18.3-2.16 20.58-1.52 24.36-.2 9.74" stroke="#3a414a" stroke-width="3" stroke-linejoin="round" fill="none"/><path d="M-1754.28 5645.07l-2.95-.06.03-1.5h2.95z" stroke="#3a414a" stroke-width=".05" fill="#3a414a"/><path d="M-1806.9 5973.65l-4.34-14.36 9.27.18z" stroke="#3a414a" stroke-width="3" fill="#3a414a"/><use xlink:href="#o" transform="matrix(1,0,0,1,-1797.5816408954402,5918.322623594688) translate(0 23.111111111111114)"/><use xlink:href="#n" transform="matrix(1,0,0,1,-1797.5816408954402,5918.322623594688) translate(54.5679012345679 23.111111111111114)"/><path d="M-1816 5977c0 .82-.68 1.5-1.5 1.5-.83 0-1.5-.68-1.5-1.5 0-.83.67-1.5 1.5-1.5.82 0 1.5.67 1.5 1.5zm.24-12.2c0 .82-.67 1.5-1.5 1.5s-1.5-.68-1.5-1.5c0-.84.67-1.5 1.5-1.5s1.5.66 1.5 1.5zm.24-12.22c0 .83-.67 1.5-1.5 1.5s-1.5-.67-1.5-1.5c0-.82.67-1.5 1.5-1.5s1.5.68 1.5 1.5zm.46-12.2c0 .84-.67 1.5-1.5 1.5-.82 0-1.5-.66-1.5-1.5 0-.82.68-1.5 1.5-1.5.83 0 1.5.68 1.5 1.5zm.76-12.18c0 .83-.67 1.5-1.5 1.5s-1.5-.67-1.5-1.5.67-1.5 1.5-1.5 1.5.67 1.5 1.5zm.9-12.17c0 .83-.66 1.5-1.5 1.5-.82 0-1.5-.67-1.5-1.5s.68-1.5 1.5-1.5c.84 0 1.5.67 1.5 1.5zm1.28-12.14c0 .82-.67 1.5-1.5 1.5s-1.5-.68-1.5-1.5c0-.84.67-1.5 1.5-1.5s1.5.66 1.5 1.5zm1.52-12.12c0 .82-.67 1.5-1.5 1.5s-1.5-.68-1.5-1.5c0-.83.67-1.5 1.5-1.5s1.5.67 1.5 1.5zm1.78-12.08c0 .83-.67 1.5-1.5 1.5s-1.5-.67-1.5-1.5.67-1.5 1.5-1.5 1.5.67 1.5 1.5zm2.22-12c0 .82-.67 1.5-1.5 1.5-.82 0-1.5-.68-1.5-1.5 0-.83.68-1.5 1.5-1.5.83 0 1.5.67 1.5 1.5zm2.44-11.96c0 .82-.67 1.5-1.5 1.5s-1.5-.68-1.5-1.5c0-.83.67-1.5 1.5-1.5s1.5.67 1.5 1.5zm2.8-11.9c0 .84-.67 1.5-1.5 1.5-.82 0-1.5-.66-1.5-1.5 0-.82.68-1.5 1.5-1.5.83 0 1.5.68 1.5 1.5zm2.92-11.84c0 .83-.67 1.5-1.5 1.5s-1.5-.67-1.5-1.5.67-1.5 1.5-1.5 1.5.67 1.5 1.5zm3.08-11.8c0 .8-.68 1.5-1.5 1.5-.83 0-1.5-.7-1.5-1.5 0-.84.67-1.5 1.5-1.5.82 0 1.5.66 1.5 1.5zm3.07-11.83c0 .83-.66 1.5-1.5 1.5-.82 0-1.5-.67-1.5-1.5s.68-1.5 1.5-1.5c.84 0 1.5.67 1.5 1.5zm3.1-11.8c0 .82-.68 1.5-1.5 1.5-.84 0-1.5-.68-1.5-1.5 0-.84.66-1.5 1.5-1.5.82 0 1.5.66 1.5 1.5zm3.07-11.83c0 .83-.68 1.5-1.5 1.5-.83 0-1.5-.67-1.5-1.5s.67-1.5 1.5-1.5c.82 0 1.5.67 1.5 1.5zm3.07-11.8c0 .82-.67 1.5-1.5 1.5s-1.5-.68-1.5-1.5c0-.84.67-1.5 1.5-1.5s1.5.66 1.5 1.5zm2.96-11.85c0 .82-.67 1.5-1.5 1.5-.82 0-1.5-.68-1.5-1.5 0-.84.68-1.5 1.5-1.5.83 0 1.5.66 1.5 1.5zm2.3-12c0 .82-.68 1.5-1.5 1.5-.83 0-1.5-.68-1.5-1.5 0-.83.67-1.5 1.5-1.5.82 0 1.5.67 1.5 1.5zm2-12.04c0 .82-.67 1.5-1.5 1.5s-1.5-.68-1.5-1.5c0-.83.67-1.5 1.5-1.5s1.5.67 1.5 1.5zm1.78-12.08c0 .83-.67 1.5-1.5 1.5s-1.5-.67-1.5-1.5.67-1.5 1.5-1.5 1.5.67 1.5 1.5zm1.3-12.14c0 .83-.67 1.5-1.5 1.5s-1.5-.67-1.5-1.5.67-1.5 1.5-1.5 1.5.67 1.5 1.5zm1.2-12.15c0 .82-.68 1.5-1.5 1.5-.84 0-1.5-.68-1.5-1.5 0-.84.66-1.5 1.5-1.5.82 0 1.5.66 1.5 1.5zm.75-12.2c0 .84-.67 1.5-1.5 1.5s-1.5-.66-1.5-1.5c0-.82.67-1.5 1.5-1.5s1.5.68 1.5 1.5zm.75-12.18c0 .83-.67 1.5-1.5 1.5s-1.5-.67-1.5-1.5.67-1.5 1.5-1.5 1.5.67 1.5 1.5z" fill="#3a414a"/><path d="M-1816.03 5977l-.03 1.5h-2.95l.02-1.57z" stroke="#3a414a" stroke-width=".05" fill="#3a414a"/><path d="M-1770.96 5648.35l4.35 14.36-9.28-.18z" stroke="#3a414a" stroke-width="3" fill="#3a414a"/><g><use xlink:href="#p" transform="matrix(1,0,0,1,-1943.6551551513633,5846.230073343045) translate(0 23.111111111111114)"/></g><path d="M-1421.6 5645l1 51.38 2.32 37.5 3.45 32.78 16.53 121.47 2.33 37.5.63 32.25" stroke="#3a414a" stroke-width="3" stroke-linejoin="round" fill="none"/><path d="M-1420.13 5645l-2.95.07-.03-1.57h2.94z" stroke="#3a414a" stroke-width=".05" fill="#3a414a"/><path d="M-1395.04 5973.65l-4.9-14.18 9.26-.18z" stroke="#3a414a" stroke-width="3" fill="#3a414a"/><g><use xlink:href="#o" transform="matrix(1,0,0,1,-1405.9355071285731,5755.498779994846) translate(0 23.111111111111114)"/><use xlink:href="#n" transform="matrix(1,0,0,1,-1405.9355071285731,5755.498779994846) translate(54.5679012345679 23.111111111111114)"/></g><path d="M-1401.93 5977c0 .82-.67 1.5-1.5 1.5s-1.5-.68-1.5-1.5c0-.83.67-1.5 1.5-1.5s1.5.67 1.5 1.5zm-.24-12.15c0 .82-.67 1.5-1.5 1.5s-1.5-.68-1.5-1.5c0-.83.67-1.5 1.5-1.5s1.5.67 1.5 1.5zm-.24-12.15c0 .82-.7 1.5-1.5 1.5-.84 0-1.5-.68-1.5-1.5 0-.83.66-1.5 1.5-1.5.8 0 1.5.67 1.5 1.5zm-.26-12.15c0 .82-.67 1.5-1.5 1.5-.82 0-1.5-.68-1.5-1.5 0-.83.68-1.5 1.5-1.5.83 0 1.5.67 1.5 1.5zm-.7-12.13c0 .82-.68 1.5-1.5 1.5-.83 0-1.5-.68-1.5-1.5 0-.83.67-1.5 1.5-1.5.82 0 1.5.67 1.5 1.5zm-.76-12.13c0 .8-.67 1.5-1.5 1.5s-1.5-.7-1.5-1.5c0-.84.67-1.5 1.5-1.5s1.5.66 1.5 1.5zm-1-12.12c0 .83-.66 1.5-1.5 1.5-.82 0-1.5-.67-1.5-1.5s.68-1.5 1.5-1.5c.84 0 1.5.67 1.5 1.5zm-1.25-12.1c0 .84-.67 1.5-1.5 1.5s-1.5-.66-1.5-1.5c0-.82.67-1.5 1.5-1.5s1.5.68 1.5 1.5zm-1.48-12.05c0 .83-.68 1.5-1.5 1.5-.83 0-1.5-.67-1.5-1.5 0-.82.67-1.5 1.5-1.5.82 0 1.5.68 1.5 1.5zm-1.78-12.02c0 .84-.67 1.5-1.5 1.5s-1.5-.66-1.5-1.5c0-.82.67-1.5 1.5-1.5s1.5.68 1.5 1.5zm-2.04-11.96c0 .82-.68 1.5-1.5 1.5-.83 0-1.5-.68-1.5-1.5 0-.83.67-1.5 1.5-1.5.82 0 1.5.67 1.5 1.5zm-2.3-11.94c0 .83-.67 1.5-1.5 1.5s-1.5-.67-1.5-1.5.67-1.5 1.5-1.5 1.5.67 1.5 1.5zm-2.36-11.92c0 .83-.67 1.5-1.5 1.5s-1.5-.67-1.5-1.5.67-1.5 1.5-1.5 1.5.67 1.5 1.5zm-2.53-11.88c0 .82-.67 1.5-1.5 1.5s-1.5-.68-1.5-1.5c0-.83.67-1.5 1.5-1.5s1.5.67 1.5 1.5zm-2.52-11.9c0 .84-.68 1.5-1.5 1.5-.83 0-1.5-.66-1.5-1.5 0-.82.67-1.5 1.5-1.5.82 0 1.5.68 1.5 1.5zm-2.53-11.88c0 .83-.68 1.5-1.5 1.5-.84 0-1.5-.67-1.5-1.5s.66-1.5 1.5-1.5c.82 0 1.5.67 1.5 1.5zm-2.54-11.88c0 .82-.67 1.5-1.5 1.5s-1.5-.68-1.5-1.5c0-.83.67-1.5 1.5-1.5s1.5.67 1.5 1.5zm-2.53-11.9c0 .84-.67 1.5-1.5 1.5-.82 0-1.5-.66-1.5-1.5 0-.82.68-1.5 1.5-1.5.83 0 1.5.68 1.5 1.5zm-2.52-11.88c0 .83-.66 1.5-1.5 1.5-.82 0-1.5-.67-1.5-1.5 0-.82.68-1.5 1.5-1.5.84 0 1.5.68 1.5 1.5zm-1.84-12c0 .82-.67 1.5-1.5 1.5s-1.5-.68-1.5-1.5c0-.83.67-1.5 1.5-1.5s1.5.67 1.5 1.5zm-1.77-12.03c0 .83-.68 1.5-1.5 1.5-.84 0-1.5-.67-1.5-1.5 0-.82.66-1.5 1.5-1.5.82 0 1.5.68 1.5 1.5zm-1.28-12.08c0 .82-.67 1.5-1.5 1.5-.82 0-1.5-.68-1.5-1.5 0-.83.68-1.5 1.5-1.5.83 0 1.5.67 1.5 1.5zm-1.26-12.1c0 .84-.67 1.5-1.5 1.5s-1.5-.66-1.5-1.5c0-.82.67-1.5 1.5-1.5s1.5.68 1.5 1.5zm-.77-12.12c0 .83-.7 1.5-1.5 1.5-.84 0-1.5-.67-1.5-1.5 0-.82.66-1.5 1.5-1.5.8 0 1.5.68 1.5 1.5zm-.77-12.13c0 .83-.67 1.5-1.5 1.5s-1.5-.67-1.5-1.5c0-.82.67-1.5 1.5-1.5s1.5.68 1.5 1.5zm-.5-12.13c0 .82-.66 1.5-1.5 1.5-.8 0-1.5-.68-1.5-1.5 0-.83.7-1.5 1.5-1.5.84 0 1.5.67 1.5 1.5z" fill="#3a414a"/><path d="M-1401.93 5978.5h-2.95l-.03-1.5 2.94-.07z" stroke="#3a414a" stroke-width=".05" fill="#3a414a"/><path d="M-1441.7 5648.35l4.9 14.17-9.26.2z" stroke="#3a414a" stroke-width="3" fill="#3a414a"/><g><use xlink:href="#p" transform="matrix(1,0,0,1,-1569.8091175988532,5740.551892679892) translate(0 23.111111111111114)"/></g><defs><path fill="#3a414a" d="M180 0L97-118 63-96 45 0H11l48-248h34L69-126c44-43 94-81 141-122h43L121-137 219 0h-39" id="q"/><path fill="#3a414a" d="M165-48c-4 18 1 34 23 27l-3 20c-29 8-62 0-52-35h-2C116-14 99 4 63 4 30 4 8-16 8-49c0-68 71-67 138-67 10-26 0-56-31-54-26 1-42 9-47 31l-32-5c8-67 160-71 144 15-5 28-9 54-15 81zM42-50c3 52 80 24 89-6 7-12 7-24 11-38-47 1-103-4-100 44" id="r"/><path fill="#3a414a" d="M76-167L44 0H12l33-167H18l4-23h27c3-47 25-81 82-69l-4 24c-35-8-44 15-46 45h37l-5 23H76" id="s"/><path fill="#3a414a" d="M127 0L80-88 50-66 37 0H6l51-261h31L57-100l99-90h39l-93 82L161 0h-34" id="t"/><g id="a"><use transform="matrix(0.06172839506172839,0,0,0.06172839506172839,0,0)" xlink:href="#q"/><use transform="matrix(0.06172839506172839,0,0,0.06172839506172839,14.814814814814813,0)" xlink:href="#r"/><use transform="matrix(0.06172839506172839,0,0,0.06172839506172839,27.160493827160494,0)" xlink:href="#s"/><use transform="matrix(0.06172839506172839,0,0,0.06172839506172839,33.333333333333336,0)" xlink:href="#t"/><use transform="matrix(0.06172839506172839,0,0,0.06172839506172839,44.44444444444444,0)" xlink:href="#r"/></g><path fill="#3a414a" d="M125-24c46 0 70-25 89-51l25 16C214-24 183 4 123 4 8 4-5-146 60-208c32-50 158-61 191-5 5 7 9 14 11 22l-32 10c-9-28-33-43-69-43-74 0-108 51-108 125 0 46 24 75 72 75" id="u"/><path fill="#3a414a" d="M6 0l50-261h32L37 0H6" id="v"/><path fill="#3a414a" d="M67 3c-93-2-31-127-26-193h32L48-50c-3 39 53 32 70 12 30-34 30-101 43-152h32L157 0h-30c1-10 6-24 4-33-14 20-29 37-64 36" id="w"/><path fill="#3a414a" d="M55-144c13 50 104 24 104 88C159 21 15 23 1-39l26-10c6 40 102 42 102-4-13-50-104-23-104-87 0-71 143-71 148-8l-29 4c-5-35-85-37-89 0" id="x"/><path fill="#3a414a" d="M51-54c-9 22 5 41 31 30L79-1C43 14 10-4 19-52l22-115H19l5-23h22l19-43h21l-9 43h35l-4 23H73" id="y"/><path fill="#3a414a" d="M111-194c62-3 86 47 72 106H45c-7 38 6 69 45 68 27-1 43-14 53-32l24 11C152-15 129 4 87 4 38 3 12-23 12-71c0-70 32-119 99-123zm44 81c14-66-71-72-95-28-4 8-8 17-11 28h106" id="z"/><path fill="#3a414a" d="M66-151c12-25 30-51 66-40l-6 26C45-176 58-65 38 0H6l36-190h30" id="A"/><g id="b"><use transform="matrix(0.06172839506172839,0,0,0.06172839506172839,0,0)" xlink:href="#u"/><use transform="matrix(0.06172839506172839,0,0,0.06172839506172839,15.987654320987653,0)" xlink:href="#v"/><use transform="matrix(0.06172839506172839,0,0,0.06172839506172839,20.864197530864196,0)" xlink:href="#w"/><use transform="matrix(0.06172839506172839,0,0,0.06172839506172839,33.20987654320987,0)" xlink:href="#x"/><use transform="matrix(0.06172839506172839,0,0,0.06172839506172839,44.32098765432099,0)" xlink:href="#y"/><use transform="matrix(0.06172839506172839,0,0,0.06172839506172839,50.49382716049383,0)" xlink:href="#z"/><use transform="matrix(0.06172839506172839,0,0,0.06172839506172839,62.839506172839506,0)" xlink:href="#A"/></g><path fill="#3a414a" d="M194 0L95-120 63-95V0H30v-248h33v124l119-124h40L117-140 236 0h-42" id="B"/><path fill="#3a414a" d="M141-36C126-15 110 5 73 4 37 3 15-17 15-53c-1-64 63-63 125-63 3-35-9-54-41-54-24 1-41 7-42 31l-33-3c5-37 33-52 76-52 45 0 72 20 72 64v82c-1 20 7 32 28 27v20c-31 9-61-2-59-35zM48-53c0 20 12 33 32 33 41-3 63-29 60-74-43 2-92-5-92 41" id="C"/><path fill="#3a414a" d="M101-234c-31-9-42 10-38 44h38v23H63V0H32v-167H5v-23h27c-7-52 17-82 69-68v24" id="D"/><path fill="#3a414a" d="M143 0L79-87 56-68V0H24v-261h32v163l83-92h37l-77 82L181 0h-38" id="E"/><g id="c"><use transform="matrix(0.09259259259259256,0,0,0.09259259259259256,0,0)" xlink:href="#B"/><use transform="matrix(0.09259259259259256,0,0,0.09259259259259256,22.222222222222214,0)" xlink:href="#C"/><use transform="matrix(0.09259259259259256,0,0,0.09259259259259256,40.740740740740726,0)" xlink:href="#D"/><use transform="matrix(0.09259259259259256,0,0,0.09259259259259256,49.999999999999986,0)" xlink:href="#E"/><use transform="matrix(0.09259259259259256,0,0,0.09259259259259256,66.66666666666664,0)" xlink:href="#C"/></g><path fill="#3a414a" d="M160-131c35 5 61 23 61 61C221 17 115-2 30 0v-248c76 3 177-17 177 60 0 33-19 50-47 57zm-97-11c50-1 110 9 110-42 0-47-63-36-110-37v79zm0 115c55-2 124 14 124-45 0-56-70-42-124-44v89" id="F"/><path fill="#3a414a" d="M114-163C36-179 61-72 57 0H25l-1-190h30c1 12-1 29 2 39 6-27 23-49 58-41v29" id="G"/><path fill="#3a414a" d="M100-194c62-1 85 37 85 99 1 63-27 99-86 99S16-35 15-95c0-66 28-99 85-99zM99-20c44 1 53-31 53-75 0-43-8-75-51-75s-53 32-53 75 10 74 51 75" id="H"/><path fill="#3a414a" d="M100-194c63 0 86 42 84 106H49c0 40 14 67 53 68 26 1 43-12 49-29l28 8c-11 28-37 45-77 45C44 4 14-33 15-96c1-61 26-98 85-98zm52 81c6-60-76-77-97-28-3 7-6 17-6 28h103" id="I"/><g id="d"><use transform="matrix(0.09259259259259256,0,0,0.09259259259259256,0,0)" xlink:href="#F"/><use transform="matrix(0.09259259259259256,0,0,0.09259259259259256,22.222222222222214,0)" xlink:href="#G"/><use transform="matrix(0.09259259259259256,0,0,0.09259259259259256,33.24074074074073,0)" xlink:href="#H"/><use transform="matrix(0.09259259259259256,0,0,0.09259259259259256,51.75925925925924,0)" xlink:href="#E"/><use transform="matrix(0.09259259259259256,0,0,0.09259259259259256,68.42592592592591,0)" xlink:href="#I"/><use transform="matrix(0.09259259259259256,0,0,0.09259259259259256,86.94444444444443,0)" xlink:href="#G"/></g><path fill="#3a414a" d="M27 0v-27h64v-190l-56 39v-29l58-41h29v221h61V0H27" id="J"/><use transform="matrix(0.09259259259259256,0,0,0.09259259259259256,0,0)" xlink:href="#J" id="e"/><path fill="#3a414a" d="M127-220V0H93v-220H8v-28h204v28h-85" id="K"/><path fill="#3a414a" d="M115-194c55 1 70 41 70 98S169 2 115 4C84 4 66-9 55-30l1 105H24l-1-265h31l2 30c10-21 28-34 59-34zm-8 174c40 0 45-34 45-75s-6-73-45-74c-42 0-51 32-51 76 0 43 10 73 51 73" id="L"/><path fill="#3a414a" d="M24-231v-30h32v30H24zM24 0v-190h32V0H24" id="M"/><path fill="#3a414a" d="M96-169c-40 0-48 33-48 73s9 75 48 75c24 0 41-14 43-38l32 2c-6 37-31 61-74 61-59 0-76-41-82-99-10-93 101-131 147-64 4 7 5 14 7 22l-32 3c-4-21-16-35-41-35" id="N"/><g id="f"><use transform="matrix(0.09259259259259256,0,0,0.09259259259259256,0,0)" xlink:href="#K"/><use transform="matrix(0.09259259259259256,0,0,0.09259259259259256,16.57407407407407,0)" xlink:href="#H"/><use transform="matrix(0.09259259259259256,0,0,0.09259259259259256,35.09259259259258,0)" xlink:href="#L"/><use transform="matrix(0.09259259259259256,0,0,0.09259259259259256,53.61111111111109,0)" xlink:href="#M"/><use transform="matrix(0.09259259259259256,0,0,0.09259259259259256,60.9259259259259,0)" xlink:href="#N"/></g><path fill="#3a414a" d="M205 0l-28-72H64L36 0H1l101-248h38L239 0h-34zm-38-99l-47-123c-12 45-31 82-46 123h93" id="O"/><use transform="matrix(0.09259259259259256,0,0,0.09259259259259256,0,0)" xlink:href="#O" id="g"/><use transform="matrix(0.09259259259259256,0,0,0.09259259259259256,0,0)" xlink:href="#F" id="h"/><path fill="#3a414a" d="M212-179c-10-28-35-45-73-45-59 0-87 40-87 99 0 60 29 101 89 101 43 0 62-24 78-52l27 14C228-24 195 4 139 4 59 4 22-46 18-125c-6-104 99-153 187-111 19 9 31 26 39 46" id="P"/><path fill="#3a414a" d="M117-194c89-4 53 116 60 194h-32v-121c0-31-8-49-39-48C34-167 62-67 57 0H25l-1-190h30c1 10-1 24 2 32 11-22 29-35 61-36" id="Q"/><path fill="#3a414a" d="M135-143c-3-34-86-38-87 0 15 53 115 12 119 90S17 21 10-45l28-5c4 36 97 45 98 0-10-56-113-15-118-90-4-57 82-63 122-42 12 7 21 19 24 35" id="R"/><path fill="#3a414a" d="M84 4C-5 8 30-112 23-190h32v120c0 31 7 50 39 49 72-2 45-101 50-169h31l1 190h-30c-1-10 1-25-2-33-11 22-28 36-60 37" id="S"/><path fill="#3a414a" d="M210-169c-67 3-38 105-44 169h-31v-121c0-29-5-50-35-48C34-165 62-65 56 0H25l-1-190h30c1 10-1 24 2 32 10-44 99-50 107 0 11-21 27-35 58-36 85-2 47 119 55 194h-31v-121c0-29-5-49-35-48" id="T"/><g id="i"><use transform="matrix(0.09259259259259256,0,0,0.09259259259259256,0,0)" xlink:href="#P"/><use transform="matrix(0.09259259259259256,0,0,0.09259259259259256,23.981481481481474,0)" xlink:href="#H"/><use transform="matrix(0.09259259259259256,0,0,0.09259259259259256,42.499999999999986,0)" xlink:href="#Q"/><use transform="matrix(0.09259259259259256,0,0,0.09259259259259256,61.0185185185185,0)" xlink:href="#R"/><use transform="matrix(0.09259259259259256,0,0,0.09259259259259256,77.68518518518516,0)" xlink:href="#S"/><use transform="matrix(0.09259259259259256,0,0,0.09259259259259256,96.20370370370367,0)" xlink:href="#T"/><use transform="matrix(0.09259259259259256,0,0,0.09259259259259256,123.88888888888884,0)" xlink:href="#I"/><use transform="matrix(0.09259259259259256,0,0,0.09259259259259256,142.40740740740736,0)" xlink:href="#G"/></g><path fill="#3a414a" d="M101-251c82-7 93 87 43 132L82-64C71-53 59-42 53-27h129V0H18c2-99 128-94 128-182 0-28-16-43-45-43s-46 15-49 41l-32-3c6-41 34-60 81-64" id="U"/><use transform="matrix(0.09259259259259256,0,0,0.09259259259259256,0,0)" xlink:href="#U" id="j"/><path fill="#3a414a" d="M126-127c33 6 58 20 58 59 0 88-139 92-164 29-3-8-5-16-6-25l32-3c6 27 21 44 54 44 32 0 52-15 52-46 0-38-36-46-79-43v-28c39 1 72-4 72-42 0-27-17-43-46-43-28 0-47 15-49 41l-32-3c6-42 35-63 81-64 48-1 79 21 79 65 0 36-21 52-52 59" id="V"/><use transform="matrix(0.09259259259259256,0,0,0.09259259259259256,0,0)" xlink:href="#V" id="k"/><path fill="#3a414a" d="M30-248c87 1 191-15 191 75 0 78-77 80-158 76V0H30v-248zm33 125c57 0 124 11 124-50 0-59-68-47-124-48v98" id="W"/><path fill="#3a414a" d="M85-194c31 0 48 13 60 33l-1-100h32l1 261h-30c-2-10 0-23-3-31C134-8 116 4 85 4 32 4 16-35 15-94c0-66 23-100 70-100zm9 24c-40 0-46 34-46 75 0 40 6 74 45 74 42 0 51-32 51-76 0-42-9-74-50-73" id="X"/><g id="l"><use transform="matrix(0.09259259259259256,0,0,0.09259259259259256,0,0)" xlink:href="#W"/><use transform="matrix(0.09259259259259256,0,0,0.09259259259259256,22.222222222222214,0)" xlink:href="#G"/><use transform="matrix(0.09259259259259256,0,0,0.09259259259259256,33.24074074074073,0)" xlink:href="#H"/><use transform="matrix(0.09259259259259256,0,0,0.09259259259259256,51.75925925925924,0)" xlink:href="#X"/><use transform="matrix(0.09259259259259256,0,0,0.09259259259259256,70.27777777777776,0)" xlink:href="#S"/><use transform="matrix(0.09259259259259256,0,0,0.09259259259259256,88.79629629629628,0)" xlink:href="#N"/><use transform="matrix(0.09259259259259256,0,0,0.09259259259259256,105.46296296296292,0)" xlink:href="#I"/><use transform="matrix(0.09259259259259256,0,0,0.09259259259259256,123.98148148148144,0)" xlink:href="#G"/></g><path fill="#333" d="M30-248c87 1 191-15 191 75 0 78-77 80-158 76V0H30v-248zm33 125c57 0 124 11 124-50 0-59-68-47-124-48v98" id="Y"/><path fill="#333" d="M100-194c62-1 85 37 85 99 1 63-27 99-86 99S16-35 15-95c0-66 28-99 85-99zM99-20c44 1 53-31 53-75 0-43-8-75-51-75s-53 32-53 75 10 74 51 75" id="Z"/><path fill="#333" d="M135-143c-3-34-86-38-87 0 15 53 115 12 119 90S17 21 10-45l28-5c4 36 97 45 98 0-10-56-113-15-118-90-4-57 82-63 122-42 12 7 21 19 24 35" id="aa"/><path fill="#333" d="M59-47c-2 24 18 29 38 22v24C64 9 27 4 27-40v-127H5v-23h24l9-43h21v43h35v23H59v120" id="ab"/><g id="m"><use transform="matrix(0.08024691358024691,0,0,0.08024691358024691,0,0)" xlink:href="#Y"/><use transform="matrix(0.08024691358024691,0,0,0.08024691358024691,19.25925925925926,0)" xlink:href="#Z"/><use transform="matrix(0.08024691358024691,0,0,0.08024691358024691,35.308641975308646,0)" xlink:href="#aa"/><use transform="matrix(0.08024691358024691,0,0,0.08024691358024691,49.753086419753096,0)" xlink:href="#ab"/></g><path fill="#333" d="M30 0v-248h187v28H63v79h144v27H63v87h162V0H30" id="ac"/><path fill="#333" d="M108 0H70L1-190h34L89-25l56-165h34" id="ad"/><path fill="#333" d="M100-194c63 0 86 42 84 106H49c0 40 14 67 53 68 26 1 43-12 49-29l28 8c-11 28-37 45-77 45C44 4 14-33 15-96c1-61 26-98 85-98zm52 81c6-60-76-77-97-28-3 7-6 17-6 28h103" id="ae"/><path fill="#333" d="M117-194c89-4 53 116 60 194h-32v-121c0-31-8-49-39-48C34-167 62-67 57 0H25l-1-190h30c1 10-1 24 2 32 11-22 29-35 61-36" id="af"/><g id="n"><use transform="matrix(0.08024691358024691,0,0,0.08024691358024691,0,0)" xlink:href="#ac"/><use transform="matrix(0.08024691358024691,0,0,0.08024691358024691,19.25925925925926,0)" xlink:href="#ad"/><use transform="matrix(0.08024691358024691,0,0,0.08024691358024691,33.7037037037037,0)" xlink:href="#ae"/><use transform="matrix(0.08024691358024691,0,0,0.08024691358024691,49.753086419753096,0)" xlink:href="#af"/><use transform="matrix(0.08024691358024691,0,0,0.08024691358024691,65.80246913580247,0)" xlink:href="#ab"/><use transform="matrix(0.08024691358024691,0,0,0.08024691358024691,73.82716049382717,0)" xlink:href="#aa"/></g><path fill="#333" d="M143 4C61 4 22-44 18-125c-5-107 100-154 193-111 17 8 29 25 37 43l-32 9c-13-25-37-40-76-40-61 0-88 39-88 99 0 61 29 100 91 101 35 0 62-11 79-27v-45h-74v-28h105v86C228-13 192 4 143 4" id="ag"/><g id="o"><use transform="matrix(0.08024691358024691,0,0,0.08024691358024691,0,0)" xlink:href="#ag"/><use transform="matrix(0.08024691358024691,0,0,0.08024691358024691,22.469135802469136,0)" xlink:href="#ae"/><use transform="matrix(0.08024691358024691,0,0,0.08024691358024691,38.51851851851852,0)" xlink:href="#ab"/></g><path fill="#333" d="M194-120c59 52 2 134-86 124-53-6-90-18-98-63l31-7c8 30 29 43 70 43 46 0 84-17 71-62-32-43-135-20-137-98-3-89 178-90 191-16l-30 9c-8-48-127-53-127 5 0 53 81 35 115 65" id="ah"/><path fill="#333" d="M67 3c-93-2-31-127-26-193h32L48-50c-3 39 53 32 70 12 30-34 30-101 43-152h32L157 0h-30c1-10 6-24 4-33-14 20-29 37-64 36" id="ai"/><path fill="#333" d="M68-162c25-46 127-43 121 31C183-60 169 1 98 4 69 5 53-11 43-31L36 0H5l52-261h31zm88 36c2-27-9-43-34-43-55 0-70 51-70 103 0 29 15 45 43 46 52 0 58-58 61-106" id="aj"/><path fill="#333" d="M55-144c13 50 104 24 104 88C159 21 15 23 1-39l26-10c6 40 102 42 102-4-13-50-104-23-104-87 0-71 143-71 148-8l-29 4c-5-35-85-37-89 0" id="ak"/><path fill="#333" d="M44-68c0 29 11 47 38 47 30 0 42-19 51-41l28 9C148-21 126 4 82 4 31 4 10-29 12-85c3-77 74-140 146-93 12 8 15 23 18 40l-31 5c-1-22-13-36-36-36-52 0-65 49-65 101" id="al"/><path fill="#333" d="M66-151c12-25 30-51 66-40l-6 26C45-176 58-65 38 0H6l36-190h30" id="am"/><path fill="#333" d="M50-231l6-30h32l-6 30H50zM6 0l37-190h31L37 0H6" id="an"/><path fill="#333" d="M111-194c62-3 86 47 72 106H45c-7 38 6 69 45 68 27-1 43-14 53-32l24 11C152-15 129 4 87 4 38 3 12-23 12-71c0-70 32-119 99-123zm44 81c14-66-71-72-95-28-4 8-8 17-11 28h106" id="ao"/><g id="p"><use transform="matrix(0.08024691358024691,0,0,0.08024691358024691,0,0)" xlink:href="#ah"/><use transform="matrix(0.08024691358024691,0,0,0.08024691358024691,19.25925925925926,0)" xlink:href="#ai"/><use transform="matrix(0.08024691358024691,0,0,0.08024691358024691,35.308641975308646,0)" xlink:href="#aj"/><use transform="matrix(0.08024691358024691,0,0,0.08024691358024691,51.358024691358025,0)" xlink:href="#ak"/><use transform="matrix(0.08024691358024691,0,0,0.08024691358024691,65.80246913580247,0)" xlink:href="#al"/><use transform="matrix(0.08024691358024691,0,0,0.08024691358024691,80.24691358024691,0)" xlink:href="#am"/><use transform="matrix(0.08024691358024691,0,0,0.08024691358024691,89.79629629629629,0)" xlink:href="#an"/><use transform="matrix(0.08024691358024691,0,0,0.08024691358024691,96.1358024691358,0)" xlink:href="#aj"/><use transform="matrix(0.08024691358024691,0,0,0.08024691358024691,112.18518518518518,0)" xlink:href="#ao"/></g></defs></g></svg>