<svg xmlns="http://www.w3.org/2000/svg" xmlns:xlink="http://www.w3.org/1999/xlink" xmlns:lucid="lucid" width="1860" height="1060"><g transform="translate(200 -5160)" lucid:page-tab-id="g67~o9L92yrN"><path d="M-500 5000h5500v3000H-500z" fill="#fff"/><path d="M-200 5166a6 6 0 0 1 6-6h1848a6 6 0 0 1 6 6v1048a6 6 0 0 1-6 6H-194a6 6 0 0 1-6-6z" stroke="#000" stroke-opacity="0" stroke-width="2" fill="#fff"/><path d="M-180 5186a6 6 0 0 1 6-6h1808a6 6 0 0 1 6 6v848a6 6 0 0 1-6 6H-174a6 6 0 0 1-6-6z" stroke="#282c33" stroke-width="2" fill-opacity="0"/><path d="M-180 5181.6a6 6 0 0 1 6-6h638a6 6 0 0 1 6 6v8a14.48 14.48 0 0 1-4.24 10.23l-1.52 1.52a14.48 14.48 0 0 1-10.24 4.24h-628a6 6 0 0 1-6-6z" fill="#fff"/><path d="M470 5175.6v20l-10 10h-640" stroke="#282c33" stroke-width="2" fill="none"/><path d="M-180 5181.6a6 6 0 0 1 6-6h1808a6 6 0 0 1 6 6V6182.8a6 6 0 0 1-6 6H-174a6 6 0 0 1-6-6z" stroke="#282c33" stroke-width="2" fill="none"/><use xlink:href="#a" transform="matrix(1,0,0,1,-172,5175.588235294118) translate(0 19.555555555555557)"/><use xlink:href="#b" transform="matrix(1,0,0,1,-172,5175.588235294118) translate(151.96296296296302 19.555555555555557)"/><use xlink:href="#c" transform="matrix(1,0,0,1,-172,5175.588235294118) translate(175.04938271604945 19.555555555555557)"/><use xlink:href="#d" transform="matrix(1,0,0,1,-172,5175.588235294118) translate(331.22222222222234 19.555555555555557)"/><path d="M872.15 5515.6l3.48-.13 12.34.06 14.77.7 18.5 1.63 25.15 3.32 48.26 8.56 82.94 15.57 19.62 2.6 13.5 1.2 10.3.48 8.22.05 6.82-.26 5.78-.46 5-.6 4.36-.7 3.87-.82 3.47-.87 3.13-.92 2.84-.98 2.62-1.02 2.4-1.06 2.23-1.1 2.07-1.12 1.95-1.16 1.82-1.2 1.7-1.24 1.64-1.28 1.54-1.32 1.47-1.38 1.4-1.42 1.35-1.48 1.3-1.55 1.23-1.6 1.2-1.7 1.13-1.8 1.1-1.88 1.06-2 1-2.14.98-2.28.92-2.45.87-2.64.8-2.88.75-3.13.67-3.45.37-2.42" stroke="#3a414a" stroke-linejoin="round" fill="none"/><path d="M857.42 5516.5l13.96-5.5.56 9.26zM1201.1 5482.6l3.64 14.56-9.25-.63z" stroke="#3a414a" fill="#3a414a"/><path d="M132.52 5622.66l.42-2.8.72-3.83.83-3.52.9-3.28 1-3.07 1.08-2.9 1.14-2.7 1.22-2.6 1.28-2.45 1.35-2.34 1.43-2.25 1.5-2.15 1.58-2.08 1.66-2 1.76-1.96 1.86-1.9 1.97-1.84 2.1-1.8 2.22-1.77 2.38-1.74 2.56-1.7 2.75-1.67 3-1.65 3.24-1.6 3.55-1.6 3.92-1.55 4.35-1.5 4.87-1.48 5.5-1.4 6.27-1.34 7.28-1.23 8.57-1.08 10.32-.85 12.82-.53h16.73l24.03 1.05 51.17 4.53 92.94 9 17.78.76" stroke="#3a414a" stroke-linejoin="round" fill="none"/><path d="M131.53 5637.38l-3.67-14.54 9.25.62zM457.38 5570.2l-14.37 4.3.24-9.28z" stroke="#3a414a" fill="#3a414a"/><path d="M935.93 5862.67l-.33-2.2-.8-4.22-.96-4.1-1.13-4.02-1.27-3.95-1.45-3.9-1.63-3.88-1.82-3.87-2.03-3.87-2.26-3.9-2.52-3.98-2.8-4.06-3.18-4.17-3.6-4.33-4.1-4.55-4.72-4.83-5.57-5.22-6.72-5.8-8.47-6.7-11.58-8.4-21.4-14.1-48.84-31.35-11.58-8.4-8.46-6.7-6.73-5.8-5.57-5.2-4.73-4.84-4.1-4.55-3.6-4.33-3.15-4.17-2.82-4.06-2.52-3.97-2.26-3.9-2.03-3.88-1.83-3.87-1.63-3.87-1.45-3.9-1.3-3.96-1.1-4.02-.98-4.1-.8-4.22-.33-2.2" stroke="#3a414a" stroke-linejoin="round" fill="none"/><path d="M937 5877.38l-5.66-13.9 9.25-.66zM730.72 5622.6l5.66 13.9-9.25.68z" stroke="#3a414a" fill="#3a414a"/><path d="M158.35 5437.32l.1.7.64 3.32.7 3.06.8 2.84.85 2.64.92 2.46.97 2.32 1.03 2.2 1.08 2.06 1.14 1.96 1.18 1.88 1.25 1.8 1.3 1.72 1.38 1.66 1.45 1.6 1.52 1.55 1.6 1.5 1.7 1.46 1.8 1.43 1.92 1.38 2.03 1.36 2.2 1.32 2.36 1.3 2.55 1.27 2.78 1.24 3.05 1.2 3.36 1.18 3.73 1.12 4.18 1.07 4.72 1 5.4.92 6.28.8 7.4.6 8.97.37h11.2l14.74-.64 21.55-1.86 57.47-7.66 66.34-8.92 23.64-2.03 7-.3" stroke="#3a414a" stroke-linejoin="round" fill="none"/><path d="M157.24 5422.62l5.7 13.87-9.25.7zM457.38 5469.8l-14.12 5.05-.27-9.26z" stroke="#3a414a" fill="#3a414a"/><path d="M603.2 5862.62l.02-.38.9-14.26 1.3-12.46 1.64-11.18 1.96-10.28 2.3-9.75 2.66-9.57 3.24-9.95 4.28-11.5 24.16-58.06 3.24-9.95 2.67-9.58 2.3-9.76 1.95-10.28 1.64-11.18 1.3-12.46.9-14.26v-.38" stroke="#3a414a" stroke-linejoin="round" fill="none"/><path d="M602.9 5877.38l-4.33-14.36 9.27.2zM659.97 5622.62l4.34 14.36-9.26-.2z" stroke="#3a414a" fill="#3a414a"/><path d="M460 5446a12.8 12.8 0 0 1 4.6-9.84l14.8-12.32A16.57 16.57 0 0 1 490 5420h364a6 6 0 0 1 6 6v164a16.57 16.57 0 0 1-3.84 10.6l-12.32 14.8a12.8 12.8 0 0 1-9.84 4.6H466a6 6 0 0 1-6-6z" stroke="#282c33" stroke-width="2" fill="#fff"/><path d="M466 5440a2.17 2.17 0 0 1-1.4-3.84l14.8-12.32A16.57 16.57 0 0 1 490 5420h364a2.48 2.48 0 0 1 1.76 4.24l-11.52 11.52A14.48 14.48 0 0 1 834 5440z" stroke="#282c33" stroke-width="2" fill="#e6e6e6"/><path d="M840 5446a14.48 14.48 0 0 1 4.24-10.24l11.52-11.52A2.48 2.48 0 0 1 860 5426v164a16.57 16.57 0 0 1-3.84 10.6l-12.32 14.8a2.17 2.17 0 0 1-3.84-1.4z" stroke="#282c33" stroke-width="2" fill="#ccc"/><path d="M503 5595c0 9.94-8.06 18-18 18s-18-8.06-18-18 8.06-18 18-18 18 8.06 18 18z" fill="#2db539"/><use xlink:href="#e" transform="matrix(1,0,0,1,468,5448) translate(0 19.555555555555557)"/><use xlink:href="#f" transform="matrix(1,0,0,1,468,5448) translate(69.25925925925927 19.555555555555557)"/><path d="M465.76 5898a12.8 12.8 0 0 1 4.6-9.84l5.2-4.32a16.57 16.57 0 0 1 10.6-3.84H734a6 6 0 0 1 6 6v93.6a16.57 16.57 0 0 1-3.84 10.6l-4.32 5.2a12.8 12.8 0 0 1-9.84 4.6H471.76a6 6 0 0 1-6-6z" stroke="#282c33" stroke-width="2" fill="#fff"/><path d="M471.76 5892a2.17 2.17 0 0 1-1.4-3.84l5.2-4.32a16.57 16.57 0 0 1 10.6-3.84H734a2.48 2.48 0 0 1 1.76 4.24l-3.52 3.52A14.48 14.48 0 0 1 722 5892z" stroke="#282c33" stroke-width="2" fill="#e6e6e6"/><path d="M728 5898a14.48 14.48 0 0 1 4.24-10.24l3.52-3.52A2.48 2.48 0 0 1 740 5886v93.6a16.57 16.57 0 0 1-3.84 10.6l-4.32 5.2a2.17 2.17 0 0 1-3.84-1.4z" stroke="#282c33" stroke-width="2" fill="#ccc"/><path d="M508.76 5975c0 9.94-8.06 18-18 18s-18-8.06-18-18 8.06-18 18-18 18 8.06 18 18z" fill="#f2ba00"/><use xlink:href="#g" transform="matrix(1,0,0,1,473.75976218649885,5900) translate(0 19.555555555555557)"/><path d="M1060 5378a12.8 12.8 0 0 1 4.6-9.84l5.2-4.32a16.57 16.57 0 0 1 10.6-3.84h247.84a6 6 0 0 1 6 6v93.6a16.57 16.57 0 0 1-3.84 10.6l-4.32 5.2a12.8 12.8 0 0 1-9.84 4.6H1066a6 6 0 0 1-6-6z" stroke="#282c33" stroke-width="2" fill="#fff"/><path d="M1066 5372a2.17 2.17 0 0 1-1.4-3.84l5.2-4.32a16.57 16.57 0 0 1 10.6-3.84h247.84a2.48 2.48 0 0 1 1.76 4.24l-3.52 3.52a14.48 14.48 0 0 1-10.24 4.24z" stroke="#282c33" stroke-width="2" fill="#e6e6e6"/><path d="M1322.24 5378a14.48 14.48 0 0 1 4.24-10.24l3.52-3.52a2.48 2.48 0 0 1 4.24 1.76v93.6a16.57 16.57 0 0 1-3.84 10.6l-4.32 5.2a2.17 2.17 0 0 1-3.84-1.4z" stroke="#282c33" stroke-width="2" fill="#ccc"/><path d="M1103 5455c0 9.94-8.06 18-18 18s-18-8.06-18-18 8.06-18 18-18 18 8.06 18 18z" fill="#2db539"/><use xlink:href="#h" transform="matrix(1,0,0,1,1068,5380) translate(0 19.555555555555557)"/><use xlink:href="#i" transform="matrix(1,0,0,1,1068,5380) translate(62.265432098765444 19.555555555555557)"/><path d="M20 5318a12.8 12.8 0 0 1 4.6-9.84l5.2-4.32a16.57 16.57 0 0 1 10.6-3.84h247.84a6 6 0 0 1 6 6v93.6a16.57 16.57 0 0 1-3.84 10.6l-4.32 5.2a12.8 12.8 0 0 1-9.84 4.6H26a6 6 0 0 1-6-6z" stroke="#282c33" stroke-width="2" fill="#fff"/><path d="M26 5312a2.17 2.17 0 0 1-1.4-3.84l5.2-4.32a16.57 16.57 0 0 1 10.6-3.84h247.84a2.48 2.48 0 0 1 1.76 4.24l-3.52 3.52a14.48 14.48 0 0 1-10.24 4.24z" stroke="#282c33" stroke-width="2" fill="#e6e6e6"/><path d="M282.24 5318a14.48 14.48 0 0 1 4.24-10.24l3.52-3.52a2.48 2.48 0 0 1 4.24 1.76v93.6a16.57 16.57 0 0 1-3.84 10.6l-4.32 5.2a2.17 2.17 0 0 1-3.84-1.4z" stroke="#282c33" stroke-width="2" fill="#ccc"/><path d="M63 5395c0 9.94-8.06 18-18 18s-18-8.06-18-18 8.06-18 18-18 18 8.06 18 18z" fill="#2db539"/><use xlink:href="#j" transform="matrix(1,0,0,1,28,5320) translate(0 19.555555555555557)"/><path d="M-5.7 5658a12.8 12.8 0 0 1 4.62-9.84l5.18-4.32a16.57 16.57 0 0 1 10.6-3.84h247.85a6 6 0 0 1 6 6v93.6a16.57 16.57 0 0 1-3.84 10.6l-4.3 5.2a12.8 12.8 0 0 1-9.85 4.6H.3a6 6 0 0 1-6-6z" stroke="#282c33" stroke-width="2" fill="#fff"/><path d="M.3 5652a2.17 2.17 0 0 1-1.38-3.84l5.18-4.32a16.57 16.57 0 0 1 10.6-3.84h247.85a2.48 2.48 0 0 1 1.75 4.24l-3.5 3.52a14.48 14.48 0 0 1-10.25 4.24z" stroke="#282c33" stroke-width="2" fill="#e6e6e6"/><path d="M256.55 5658a14.48 14.48 0 0 1 4.24-10.24l3.5-3.52a2.48 2.48 0 0 1 4.25 1.76v93.6a16.57 16.57 0 0 1-3.84 10.6l-4.3 5.2a2.17 2.17 0 0 1-3.85-1.4z" stroke="#282c33" stroke-width="2" fill="#ccc"/><path d="M37.3 5735c0 9.94-8.05 18-18 18-9.93 0-18-8.06-18-18s8.07-18 18-18c9.95 0 18 8.06 18 18z" fill="#2db539"/><use xlink:href="#k" transform="matrix(1,0,0,1,2.3066381418118453,5660) translate(0 19.555555555555557)"/><use xlink:href="#l" transform="matrix(1,0,0,1,2.3066381418118453,5660) translate(0 48.88888888888889)"/><path d="M800 5898a12.8 12.8 0 0 1 4.6-9.84l5.2-4.32a16.57 16.57 0 0 1 10.6-3.84h247.84a6 6 0 0 1 6 6v93.6a16.57 16.57 0 0 1-3.84 10.6l-4.32 5.2a12.8 12.8 0 0 1-9.84 4.6H806a6 6 0 0 1-6-6z" stroke="#282c33" stroke-width="2" fill="#fff"/><path d="M806 5892a2.17 2.17 0 0 1-1.4-3.84l5.2-4.32a16.57 16.57 0 0 1 10.6-3.84h247.84a2.48 2.48 0 0 1 1.76 4.24l-3.52 3.52a14.48 14.48 0 0 1-10.24 4.24z" stroke="#282c33" stroke-width="2" fill="#e6e6e6"/><path d="M1062.24 5898a14.48 14.48 0 0 1 4.24-10.24l3.52-3.52a2.48 2.48 0 0 1 4.24 1.76v93.6a16.57 16.57 0 0 1-3.84 10.6l-4.32 5.2a2.17 2.17 0 0 1-3.84-1.4z" stroke="#282c33" stroke-width="2" fill="#ccc"/><path d="M843 5975c0 9.94-8.06 18-18 18s-18-8.06-18-18 8.06-18 18-18 18 8.06 18 18z" fill="#f2ba00"/><use xlink:href="#k" transform="matrix(1,0,0,1,808,5900) translate(0 19.555555555555557)"/><use xlink:href="#m" transform="matrix(1,0,0,1,808,5900) translate(0 48.88888888888889)"/><use xlink:href="#n" transform="matrix(1,0,0,1,808,5900) translate(0 78.22222222222223)"/><path d="M1345.76 6094a12.8 12.8 0 0 1 4.6-9.84l.4-.32a16.57 16.57 0 0 1 10.6-3.84H1614a6 6 0 0 1 6 6v58.4a16.57 16.57 0 0 1-3.84 10.6l-.32.4a12.8 12.8 0 0 1-9.84 4.6h-254.24a6 6 0 0 1-6-6z" stroke="#3a414a" stroke-width="2" fill="#fff"/><path d="M1351.76 6088a2.17 2.17 0 0 1-1.4-3.84l.4-.32a16.57 16.57 0 0 1 10.6-3.84h252.98a2.34 2.34 0 0 1 1.66 4 13.66 13.66 0 0 1-9.66 4z" stroke="#3a414a" stroke-width="2" fill="#e6e6e6"/><path d="M1612 6093.66a13.66 13.66 0 0 1 4-9.66 2.34 2.34 0 0 1 4 1.66v58.74a16.57 16.57 0 0 1-3.84 10.6l-.32.4a2.17 2.17 0 0 1-3.84-1.4z" stroke="#3a414a" stroke-width="2" fill="#ccc"/><path d="M1388.76 6135c0 9.94-8.06 18-18 18s-18-8.06-18-18 8.06-18 18-18 18 8.06 18 18z" fill="#f2ba00"/><use xlink:href="#o" transform="matrix(1,0,0,1,1353.7597621864988,6096) translate(0 19.555555555555557)"/><use xlink:href="#p" transform="matrix(1,0,0,1,1353.7597621864988,6096) translate(0 48.88888888888889)"/><path d="M1040 6094a12.8 12.8 0 0 1 4.6-9.84l.4-.32a16.57 16.57 0 0 1 10.6-3.84h252.64a6 6 0 0 1 6 6v58.4a16.57 16.57 0 0 1-3.84 10.6l-.32.4a12.8 12.8 0 0 1-9.84 4.6H1046a6 6 0 0 1-6-6z" stroke="#3a414a" stroke-width="2" fill="#fff"/><path d="M1046 6088a2.17 2.17 0 0 1-1.4-3.84l.4-.32a16.57 16.57 0 0 1 10.6-3.84h252.98a2.34 2.34 0 0 1 1.66 4 13.66 13.66 0 0 1-9.66 4z" stroke="#3a414a" stroke-width="2" fill="#e6e6e6"/><path d="M1306.24 6093.66a13.66 13.66 0 0 1 4-9.66 2.34 2.34 0 0 1 4 1.66v58.74a16.57 16.57 0 0 1-3.84 10.6l-.32.4a2.17 2.17 0 0 1-3.84-1.4z" stroke="#3a414a" stroke-width="2" fill="#ccc"/><path d="M1083 6135c0 9.94-8.06 18-18 18s-18-8.06-18-18 8.06-18 18-18 18 8.06 18 18z" fill="#2db539"/><g><use xlink:href="#q" transform="matrix(1,0,0,1,1048,6096) translate(0 19.555555555555557)"/></g><path d="M-160 6094.52a6 6 0 0 1 6-6H74a6 6 0 0 1 6 6v48a6 6 0 0 1-6 6h-228a6 6 0 0 1-6-6z" fill="none"/><g><use xlink:href="#r" transform="matrix(1,0,0,1,-160,6088.518357399238) translate(0 34.44444444444444)"/></g><defs><path d="M160-131c35 5 61 23 61 61C221 17 115-2 30 0v-248c76 3 177-17 177 60 0 33-19 50-47 57zm-97-11c50-1 110 9 110-42 0-47-63-36-110-37v79zm0 115c55-2 124 14 124-45 0-56-70-42-124-44v89" id="s"/><path d="M141-36C126-15 110 5 73 4 37 3 15-17 15-53c-1-64 63-63 125-63 3-35-9-54-41-54-24 1-41 7-42 31l-33-3c5-37 33-52 76-52 45 0 72 20 72 64v82c-1 20 7 32 28 27v20c-31 9-61-2-59-35zM48-53c0 20 12 33 32 33 41-3 63-29 60-74-43 2-92-5-92 41" id="t"/><path d="M84 4C-5 8 30-112 23-190h32v120c0 31 7 50 39 49 72-2 45-101 50-169h31l1 190h-30c-1-10 1-25-2-33-11 22-28 36-60 37" id="u"/><path d="M135-143c-3-34-86-38-87 0 15 53 115 12 119 90S17 21 10-45l28-5c4 36 97 45 98 0-10-56-113-15-118-90-4-57 82-63 122-42 12 7 21 19 24 35" id="v"/><path d="M59-47c-2 24 18 29 38 22v24C64 9 27 4 27-40v-127H5v-23h24l9-43h21v43h35v23H59v120" id="w"/><path d="M100-194c63 0 86 42 84 106H49c0 40 14 67 53 68 26 1 43-12 49-29l28 8c-11 28-37 45-77 45C44 4 14-33 15-96c1-61 26-98 85-98zm52 81c6-60-76-77-97-28-3 7-6 17-6 28h103" id="x"/><path d="M24-231v-30h32v30H24zM24 0v-190h32V0H24" id="y"/><path d="M117-194c89-4 53 116 60 194h-32v-121c0-31-8-49-39-48C34-167 62-67 57 0H25l-1-190h30c1 10-1 24 2 32 11-22 29-35 61-36" id="z"/><path d="M96-169c-40 0-48 33-48 73s9 75 48 75c24 0 41-14 43-38l32 2c-6 37-31 61-74 61-59 0-76-41-82-99-10-93 101-131 147-64 4 7 5 14 7 22l-32 3c-4-21-16-35-41-35" id="A"/><path d="M106-169C34-169 62-67 57 0H25v-261h32l-1 103c12-21 28-36 61-36 89 0 53 116 60 194h-32v-121c2-32-8-49-39-48" id="B"/><g id="a"><use transform="matrix(0.06790123456790124,0,0,0.06790123456790124,0,0)" xlink:href="#s"/><use transform="matrix(0.06790123456790124,0,0,0.06790123456790124,16.296296296296298,0)" xlink:href="#t"/><use transform="matrix(0.06790123456790124,0,0,0.06790123456790124,29.876543209876544,0)" xlink:href="#u"/><use transform="matrix(0.06790123456790124,0,0,0.06790123456790124,43.45679012345679,0)" xlink:href="#v"/><use transform="matrix(0.06790123456790124,0,0,0.06790123456790124,55.67901234567901,0)" xlink:href="#w"/><use transform="matrix(0.06790123456790124,0,0,0.06790123456790124,62.46913580246914,0)" xlink:href="#x"/><use transform="matrix(0.06790123456790124,0,0,0.06790123456790124,76.0493827160494,0)" xlink:href="#y"/><use transform="matrix(0.06790123456790124,0,0,0.06790123456790124,81.4135802469136,0)" xlink:href="#z"/><use transform="matrix(0.06790123456790124,0,0,0.06790123456790124,94.99382716049385,0)" xlink:href="#v"/><use transform="matrix(0.06790123456790124,0,0,0.06790123456790124,107.21604938271608,0)" xlink:href="#y"/><use transform="matrix(0.06790123456790124,0,0,0.06790123456790124,112.58024691358028,0)" xlink:href="#A"/><use transform="matrix(0.06790123456790124,0,0,0.06790123456790124,124.80246913580253,0)" xlink:href="#B"/><use transform="matrix(0.06790123456790124,0,0,0.06790123456790124,138.38271604938276,0)" xlink:href="#w"/></g><path d="M234-2c-28 10-62 0-77-18C117 19 8 12 13-65c3-43 29-61 60-76-25-40-17-114 47-108 35 3 59 15 59 50 0 44-40 53-71 69 14 26 32 50 51 72 14-21 24-43 30-72l26 8c-9 33-21 57-38 82 13 13 33 22 57 15v23zM97-151c25-10 52-18 56-48-1-18-13-29-33-29-42 0-39 50-23 77zM42-66c-3 51 71 58 98 28-20-24-41-51-56-80-23 10-40 24-42 52" id="C"/><use transform="matrix(0.06790123456790124,0,0,0.06790123456790124,0,0)" xlink:href="#C" id="b"/><path d="M205 0l-28-72H64L36 0H1l101-248h38L239 0h-34zm-38-99l-47-123c-12 45-31 82-46 123h93" id="D"/><path d="M115-194c53 0 69 39 70 98 0 66-23 100-70 100C84 3 66-7 56-30L54 0H23l1-261h32v101c10-23 28-34 59-34zm-8 174c40 0 45-34 45-75 0-40-5-75-45-74-42 0-51 32-51 76 0 43 10 73 51 73" id="E"/><path d="M101-234c-31-9-42 10-38 44h38v23H63V0H32v-167H5v-23h27c-7-52 17-82 69-68v24" id="F"/><g id="c"><use transform="matrix(0.06790123456790124,0,0,0.06790123456790124,0,0)" xlink:href="#D"/><use transform="matrix(0.06790123456790124,0,0,0.06790123456790124,16.296296296296298,0)" xlink:href="#u"/><use transform="matrix(0.06790123456790124,0,0,0.06790123456790124,29.876543209876544,0)" xlink:href="#v"/><use transform="matrix(0.06790123456790124,0,0,0.06790123456790124,42.098765432098766,0)" xlink:href="#E"/><use transform="matrix(0.06790123456790124,0,0,0.06790123456790124,55.67901234567901,0)" xlink:href="#t"/><use transform="matrix(0.06790123456790124,0,0,0.06790123456790124,69.25925925925927,0)" xlink:href="#u"/><use transform="matrix(0.06790123456790124,0,0,0.06790123456790124,82.83950617283952,0)" xlink:href="#v"/><use transform="matrix(0.06790123456790124,0,0,0.06790123456790124,95.06172839506175,0)" xlink:href="#w"/><use transform="matrix(0.06790123456790124,0,0,0.06790123456790124,101.85185185185188,0)" xlink:href="#u"/><use transform="matrix(0.06790123456790124,0,0,0.06790123456790124,115.43209876543213,0)" xlink:href="#F"/><use transform="matrix(0.06790123456790124,0,0,0.06790123456790124,122.22222222222226,0)" xlink:href="#x"/><use transform="matrix(0.06790123456790124,0,0,0.06790123456790124,135.8024691358025,0)" xlink:href="#z"/></g><path d="M63-220v92h138v28H63V0H30v-248h175v28H63" id="G"/><path d="M114-163C36-179 61-72 57 0H25l-1-190h30c1 12-1 29 2 39 6-27 23-49 58-41v29" id="H"/><path d="M210-169c-67 3-38 105-44 169h-31v-121c0-29-5-50-35-48C34-165 62-65 56 0H25l-1-190h30c1 10-1 24 2 32 10-44 99-50 107 0 11-21 27-35 58-36 85-2 47 119 55 194h-31v-121c0-29-5-49-35-48" id="I"/><path d="M85-194c31 0 48 13 60 33l-1-100h32l1 261h-30c-2-10 0-23-3-31C134-8 116 4 85 4 32 4 16-35 15-94c0-66 23-100 70-100zm9 24c-40 0-46 34-46 75 0 40 6 74 45 74 42 0 51-32 51-76 0-42-9-74-50-73" id="J"/><path d="M108 0H70L1-190h34L89-25l56-165h34" id="K"/><path d="M177-190C167-65 218 103 67 71c-23-6-38-20-44-43l32-5c15 47 100 32 89-28v-30C133-14 115 1 83 1 29 1 15-40 15-95c0-56 16-97 71-98 29-1 48 16 59 35 1-10 0-23 2-32h30zM94-22c36 0 50-32 50-73 0-42-14-75-50-75-39 0-46 34-46 75s6 73 46 73" id="L"/><g id="d"><use transform="matrix(0.06790123456790124,0,0,0.06790123456790124,0,0)" xlink:href="#G"/><use transform="matrix(0.06790123456790124,0,0,0.06790123456790124,14.870370370370372,0)" xlink:href="#H"/><use transform="matrix(0.06790123456790124,0,0,0.06790123456790124,22.95061728395062,0)" xlink:href="#x"/><use transform="matrix(0.06790123456790124,0,0,0.06790123456790124,36.53086419753087,0)" xlink:href="#I"/><use transform="matrix(0.06790123456790124,0,0,0.06790123456790124,56.83333333333334,0)" xlink:href="#J"/><use transform="matrix(0.06790123456790124,0,0,0.06790123456790124,70.4135802469136,0)" xlink:href="#K"/><use transform="matrix(0.06790123456790124,0,0,0.06790123456790124,82.63580246913583,0)" xlink:href="#x"/><use transform="matrix(0.06790123456790124,0,0,0.06790123456790124,96.21604938271608,0)" xlink:href="#H"/><use transform="matrix(0.06790123456790124,0,0,0.06790123456790124,104.29629629629633,0)" xlink:href="#w"/><use transform="matrix(0.06790123456790124,0,0,0.06790123456790124,111.08641975308646,0)" xlink:href="#H"/><use transform="matrix(0.06790123456790124,0,0,0.06790123456790124,119.16666666666671,0)" xlink:href="#t"/><use transform="matrix(0.06790123456790124,0,0,0.06790123456790124,132.74691358024697,0)" xlink:href="#L"/><use transform="matrix(0.06790123456790124,0,0,0.06790123456790124,146.32716049382722,0)" xlink:href="#v"/><use transform="matrix(0.06790123456790124,0,0,0.06790123456790124,158.54938271604945,0)" xlink:href="#x"/><use transform="matrix(0.06790123456790124,0,0,0.06790123456790124,172.1296296296297,0)" xlink:href="#H"/><use transform="matrix(0.06790123456790124,0,0,0.06790123456790124,180.20987654320996,0)" xlink:href="#F"/><use transform="matrix(0.06790123456790124,0,0,0.06790123456790124,187.00000000000009,0)" xlink:href="#t"/><use transform="matrix(0.06790123456790124,0,0,0.06790123456790124,200.58024691358034,0)" xlink:href="#v"/><use transform="matrix(0.06790123456790124,0,0,0.06790123456790124,212.80246913580257,0)" xlink:href="#v"/><use transform="matrix(0.06790123456790124,0,0,0.06790123456790124,225.0246913580248,0)" xlink:href="#u"/><use transform="matrix(0.06790123456790124,0,0,0.06790123456790124,238.60493827160502,0)" xlink:href="#z"/><use transform="matrix(0.06790123456790124,0,0,0.06790123456790124,252.1851851851853,0)" xlink:href="#L"/></g><path fill="#3a414a" d="M194 0L95-120 63-95V0H30v-248h33v124l119-124h40L117-140 236 0h-42" id="M"/><path fill="#3a414a" d="M141-36C126-15 110 5 73 4 37 3 15-17 15-53c-1-64 63-63 125-63 3-35-9-54-41-54-24 1-41 7-42 31l-33-3c5-37 33-52 76-52 45 0 72 20 72 64v82c-1 20 7 32 28 27v20c-31 9-61-2-59-35zM48-53c0 20 12 33 32 33 41-3 63-29 60-74-43 2-92-5-92 41" id="N"/><path fill="#3a414a" d="M101-234c-31-9-42 10-38 44h38v23H63V0H32v-167H5v-23h27c-7-52 17-82 69-68v24" id="O"/><path fill="#3a414a" d="M143 0L79-87 56-68V0H24v-261h32v163l83-92h37l-77 82L181 0h-38" id="P"/><g id="e"><use transform="matrix(0.06790123456790124,0,0,0.06790123456790124,0,0)" xlink:href="#M"/><use transform="matrix(0.06790123456790124,0,0,0.06790123456790124,16.296296296296298,0)" xlink:href="#N"/><use transform="matrix(0.06790123456790124,0,0,0.06790123456790124,29.876543209876544,0)" xlink:href="#O"/><use transform="matrix(0.06790123456790124,0,0,0.06790123456790124,36.66666666666667,0)" xlink:href="#P"/><use transform="matrix(0.06790123456790124,0,0,0.06790123456790124,48.88888888888889,0)" xlink:href="#N"/></g><path fill="#3a414a" d="M212-179c-10-28-35-45-73-45-59 0-87 40-87 99 0 60 29 101 89 101 43 0 62-24 78-52l27 14C228-24 195 4 139 4 59 4 22-46 18-125c-6-104 99-153 187-111 19 9 31 26 39 46" id="Q"/><path fill="#3a414a" d="M24 0v-261h32V0H24" id="R"/><path fill="#3a414a" d="M84 4C-5 8 30-112 23-190h32v120c0 31 7 50 39 49 72-2 45-101 50-169h31l1 190h-30c-1-10 1-25-2-33-11 22-28 36-60 37" id="S"/><path fill="#3a414a" d="M135-143c-3-34-86-38-87 0 15 53 115 12 119 90S17 21 10-45l28-5c4 36 97 45 98 0-10-56-113-15-118-90-4-57 82-63 122-42 12 7 21 19 24 35" id="T"/><path fill="#3a414a" d="M59-47c-2 24 18 29 38 22v24C64 9 27 4 27-40v-127H5v-23h24l9-43h21v43h35v23H59v120" id="U"/><path fill="#3a414a" d="M100-194c63 0 86 42 84 106H49c0 40 14 67 53 68 26 1 43-12 49-29l28 8c-11 28-37 45-77 45C44 4 14-33 15-96c1-61 26-98 85-98zm52 81c6-60-76-77-97-28-3 7-6 17-6 28h103" id="V"/><path fill="#3a414a" d="M114-163C36-179 61-72 57 0H25l-1-190h30c1 12-1 29 2 39 6-27 23-49 58-41v29" id="W"/><g id="f"><use transform="matrix(0.06790123456790124,0,0,0.06790123456790124,0,0)" xlink:href="#Q"/><use transform="matrix(0.06790123456790124,0,0,0.06790123456790124,17.58641975308642,0)" xlink:href="#R"/><use transform="matrix(0.06790123456790124,0,0,0.06790123456790124,22.95061728395062,0)" xlink:href="#S"/><use transform="matrix(0.06790123456790124,0,0,0.06790123456790124,36.53086419753087,0)" xlink:href="#T"/><use transform="matrix(0.06790123456790124,0,0,0.06790123456790124,48.75308641975309,0)" xlink:href="#U"/><use transform="matrix(0.06790123456790124,0,0,0.06790123456790124,55.543209876543216,0)" xlink:href="#V"/><use transform="matrix(0.06790123456790124,0,0,0.06790123456790124,69.12345679012347,0)" xlink:href="#W"/></g><path fill="#3a414a" d="M140-251c81 0 123 46 123 126C263-46 219 4 140 4 59 4 17-45 17-125s42-126 123-126zm0 227c63 0 89-41 89-101s-29-99-89-99c-61 0-89 39-89 99S79-25 140-24" id="X"/><path fill="#3a414a" d="M16-82v-28h88v28H16" id="Y"/><path fill="#3a414a" d="M185-189c-5-48-123-54-124 2 14 75 158 14 163 119 3 78-121 87-175 55-17-10-28-26-33-46l33-7c5 56 141 63 141-1 0-78-155-14-162-118-5-82 145-84 179-34 5 7 8 16 11 25" id="Z"/><path fill="#3a414a" d="M179-190L93 31C79 59 56 82 12 73V49c39 6 53-20 64-50L1-190h34L92-34l54-156h33" id="aa"/><path fill="#3a414a" d="M210-169c-67 3-38 105-44 169h-31v-121c0-29-5-50-35-48C34-165 62-65 56 0H25l-1-190h30c1 10-1 24 2 32 10-44 99-50 107 0 11-21 27-35 58-36 85-2 47 119 55 194h-31v-121c0-29-5-49-35-48" id="ab"/><g id="g"><use transform="matrix(0.06790123456790124,0,0,0.06790123456790124,0,0)" xlink:href="#X"/><use transform="matrix(0.06790123456790124,0,0,0.06790123456790124,19.01234567901235,0)" xlink:href="#O"/><use transform="matrix(0.06790123456790124,0,0,0.06790123456790124,25.32716049382716,0)" xlink:href="#O"/><use transform="matrix(0.06790123456790124,0,0,0.06790123456790124,32.117283950617285,0)" xlink:href="#V"/><use transform="matrix(0.06790123456790124,0,0,0.06790123456790124,45.69753086419753,0)" xlink:href="#W"/><use transform="matrix(0.06790123456790124,0,0,0.06790123456790124,53.77777777777778,0)" xlink:href="#U"/><use transform="matrix(0.06790123456790124,0,0,0.06790123456790124,60.567901234567906,0)" xlink:href="#Y"/><use transform="matrix(0.06790123456790124,0,0,0.06790123456790124,68.64814814814815,0)" xlink:href="#Z"/><use transform="matrix(0.06790123456790124,0,0,0.06790123456790124,84.94444444444446,0)" xlink:href="#aa"/><use transform="matrix(0.06790123456790124,0,0,0.06790123456790124,97.16666666666669,0)" xlink:href="#T"/><use transform="matrix(0.06790123456790124,0,0,0.06790123456790124,109.38888888888891,0)" xlink:href="#U"/><use transform="matrix(0.06790123456790124,0,0,0.06790123456790124,116.17901234567904,0)" xlink:href="#V"/><use transform="matrix(0.06790123456790124,0,0,0.06790123456790124,129.7592592592593,0)" xlink:href="#ab"/></g><path fill="#3a414a" d="M233-177c-1 41-23 64-60 70L243 0h-38l-65-103H63V0H30v-248c88 3 205-21 203 71zM63-129c60-2 137 13 137-47 0-61-80-42-137-45v92" id="ac"/><path fill="#3a414a" d="M240 0l2-218c-23 76-54 145-80 218h-23L58-218 59 0H30v-248h44l77 211c21-75 51-140 76-211h43V0h-30" id="ad"/><g id="h"><use transform="matrix(0.06790123456790124,0,0,0.06790123456790124,0,0)" xlink:href="#Q"/><use transform="matrix(0.06790123456790124,0,0,0.06790123456790124,17.58641975308642,0)" xlink:href="#ac"/><use transform="matrix(0.06790123456790124,0,0,0.06790123456790124,35.17283950617284,0)" xlink:href="#ad"/></g><path fill="#3a414a" d="M87 75C49 33 22-17 22-94c0-76 28-126 65-167h31c-38 41-64 92-64 168S80 34 118 75H87" id="ae"/><path fill="#3a414a" d="M33-261c38 41 65 92 65 168S71 34 33 75H2C39 34 66-17 66-93S39-220 2-261h31" id="af"/><g id="i"><use transform="matrix(0.06790123456790124,0,0,0.06790123456790124,0,0)" xlink:href="#ae"/><use transform="matrix(0.06790123456790124,0,0,0.06790123456790124,8.080246913580249,0)" xlink:href="#Z"/><use transform="matrix(0.06790123456790124,0,0,0.06790123456790124,24.376543209876544,0)" xlink:href="#N"/><use transform="matrix(0.06790123456790124,0,0,0.06790123456790124,37.95679012345679,0)" xlink:href="#N"/><use transform="matrix(0.06790123456790124,0,0,0.06790123456790124,51.53703703703704,0)" xlink:href="#Z"/><use transform="matrix(0.06790123456790124,0,0,0.06790123456790124,67.83333333333334,0)" xlink:href="#af"/></g><path fill="#3a414a" d="M30-248c118-7 216 8 213 122C240-48 200 0 122 0H30v-248zM63-27c89 8 146-16 146-99s-60-101-146-95v194" id="ag"/><path fill="#3a414a" d="M266 0h-40l-56-210L115 0H75L2-248h35L96-30l15-64 43-154h32l59 218 59-218h35" id="ah"/><path fill="#3a414a" d="M106-169C34-169 62-67 57 0H25v-261h32l-1 103c12-21 28-36 61-36 89 0 53 116 60 194h-32v-121c2-32-8-49-39-48" id="ai"/><path fill="#3a414a" d="M100-194c62-1 85 37 85 99 1 63-27 99-86 99S16-35 15-95c0-66 28-99 85-99zM99-20c44 1 53-31 53-75 0-43-8-75-51-75s-53 32-53 75 10 74 51 75" id="aj"/><g id="j"><use transform="matrix(0.06790123456790124,0,0,0.06790123456790124,0,0)" xlink:href="#ag"/><use transform="matrix(0.06790123456790124,0,0,0.06790123456790124,17.58641975308642,0)" xlink:href="#N"/><use transform="matrix(0.06790123456790124,0,0,0.06790123456790124,31.16666666666667,0)" xlink:href="#U"/><use transform="matrix(0.06790123456790124,0,0,0.06790123456790124,37.9567901234568,0)" xlink:href="#V"/><use transform="matrix(0.06790123456790124,0,0,0.06790123456790124,51.537037037037045,0)" xlink:href="#Y"/><use transform="matrix(0.06790123456790124,0,0,0.06790123456790124,59.61728395061729,0)" xlink:href="#ah"/><use transform="matrix(0.06790123456790124,0,0,0.06790123456790124,81.7530864197531,0)" xlink:href="#N"/><use transform="matrix(0.06790123456790124,0,0,0.06790123456790124,95.33333333333336,0)" xlink:href="#W"/><use transform="matrix(0.06790123456790124,0,0,0.06790123456790124,103.41358024691361,0)" xlink:href="#V"/><use transform="matrix(0.06790123456790124,0,0,0.06790123456790124,116.99382716049386,0)" xlink:href="#ai"/><use transform="matrix(0.06790123456790124,0,0,0.06790123456790124,130.5740740740741,0)" xlink:href="#aj"/><use transform="matrix(0.06790123456790124,0,0,0.06790123456790124,144.1543209876544,0)" xlink:href="#S"/><use transform="matrix(0.06790123456790124,0,0,0.06790123456790124,157.7345679012346,0)" xlink:href="#T"/><use transform="matrix(0.06790123456790124,0,0,0.06790123456790124,169.95679012345684,0)" xlink:href="#V"/></g><path fill="#3a414a" d="M117-194c89-4 53 116 60 194h-32v-121c0-31-8-49-39-48C34-167 62-67 57 0H25l-1-190h30c1 10-1 24 2 32 11-22 29-35 61-36" id="ak"/><g id="k"><use transform="matrix(0.06790123456790124,0,0,0.06790123456790124,0,0)" xlink:href="#ag"/><use transform="matrix(0.06790123456790124,0,0,0.06790123456790124,17.58641975308642,0)" xlink:href="#aj"/><use transform="matrix(0.06790123456790124,0,0,0.06790123456790124,31.16666666666667,0)" xlink:href="#P"/><use transform="matrix(0.06790123456790124,0,0,0.06790123456790124,43.38888888888889,0)" xlink:href="#S"/><use transform="matrix(0.06790123456790124,0,0,0.06790123456790124,56.96913580246914,0)" xlink:href="#ab"/><use transform="matrix(0.06790123456790124,0,0,0.06790123456790124,77.27160493827161,0)" xlink:href="#V"/><use transform="matrix(0.06790123456790124,0,0,0.06790123456790124,90.85185185185186,0)" xlink:href="#ak"/><use transform="matrix(0.06790123456790124,0,0,0.06790123456790124,104.43209876543212,0)" xlink:href="#U"/><use transform="matrix(0.06790123456790124,0,0,0.06790123456790124,111.22222222222224,0)" xlink:href="#V"/><use transform="matrix(0.06790123456790124,0,0,0.06790123456790124,124.8024691358025,0)" xlink:href="#ak"/><use transform="matrix(0.06790123456790124,0,0,0.06790123456790124,138.38271604938274,0)" xlink:href="#Y"/></g><path fill="#3a414a" d="M108 0H70L1-190h34L89-25l56-165h34" id="al"/><path fill="#3a414a" d="M115-194c53 0 69 39 70 98 0 66-23 100-70 100C84 3 66-7 56-30L54 0H23l1-261h32v101c10-23 28-34 59-34zm-8 174c40 0 45-34 45-75 0-40-5-75-45-74-42 0-51 32-51 76 0 43 10 73 51 73" id="am"/><path fill="#3a414a" d="M24-231v-30h32v30H24zM24 0v-190h32V0H24" id="an"/><path fill="#3a414a" d="M177-190C167-65 218 103 67 71c-23-6-38-20-44-43l32-5c15 47 100 32 89-28v-30C133-14 115 1 83 1 29 1 15-40 15-95c0-56 16-97 71-98 29-1 48 16 59 35 1-10 0-23 2-32h30zM94-22c36 0 50-32 50-73 0-42-14-75-50-75-39 0-46 34-46 75s6 73 46 73" id="ao"/><path fill="#3a414a" d="M96-169c-40 0-48 33-48 73s9 75 48 75c24 0 41-14 43-38l32 2c-6 37-31 61-74 61-59 0-76-41-82-99-10-93 101-131 147-64 4 7 5 14 7 22l-32 3c-4-21-16-35-41-35" id="ap"/><g id="l"><use transform="matrix(0.06790123456790124,0,0,0.06790123456790124,0,0)" xlink:href="#al"/><use transform="matrix(0.06790123456790124,0,0,0.06790123456790124,12.222222222222223,0)" xlink:href="#V"/><use transform="matrix(0.06790123456790124,0,0,0.06790123456790124,25.802469135802472,0)" xlink:href="#W"/><use transform="matrix(0.06790123456790124,0,0,0.06790123456790124,33.88271604938272,0)" xlink:href="#N"/><use transform="matrix(0.06790123456790124,0,0,0.06790123456790124,47.46296296296297,0)" xlink:href="#W"/><use transform="matrix(0.06790123456790124,0,0,0.06790123456790124,55.543209876543216,0)" xlink:href="#am"/><use transform="matrix(0.06790123456790124,0,0,0.06790123456790124,69.12345679012347,0)" xlink:href="#V"/><use transform="matrix(0.06790123456790124,0,0,0.06790123456790124,82.70370370370371,0)" xlink:href="#an"/><use transform="matrix(0.06790123456790124,0,0,0.06790123456790124,88.06790123456793,0)" xlink:href="#U"/><use transform="matrix(0.06790123456790124,0,0,0.06790123456790124,94.85802469135805,0)" xlink:href="#S"/><use transform="matrix(0.06790123456790124,0,0,0.06790123456790124,108.43827160493831,0)" xlink:href="#ak"/><use transform="matrix(0.06790123456790124,0,0,0.06790123456790124,122.01851851851856,0)" xlink:href="#ao"/><use transform="matrix(0.06790123456790124,0,0,0.06790123456790124,135.59876543209882,0)" xlink:href="#T"/><use transform="matrix(0.06790123456790124,0,0,0.06790123456790124,147.82098765432104,0)" xlink:href="#Y"/><use transform="matrix(0.06790123456790124,0,0,0.06790123456790124,155.9012345679013,0)" xlink:href="#Z"/><use transform="matrix(0.06790123456790124,0,0,0.06790123456790124,172.19753086419757,0)" xlink:href="#V"/><use transform="matrix(0.06790123456790124,0,0,0.06790123456790124,185.77777777777786,0)" xlink:href="#W"/><use transform="matrix(0.06790123456790124,0,0,0.06790123456790124,193.8580246913581,0)" xlink:href="#al"/><use transform="matrix(0.06790123456790124,0,0,0.06790123456790124,206.08024691358034,0)" xlink:href="#an"/><use transform="matrix(0.06790123456790124,0,0,0.06790123456790124,211.44444444444454,0)" xlink:href="#ap"/><use transform="matrix(0.06790123456790124,0,0,0.06790123456790124,223.66666666666677,0)" xlink:href="#V"/></g><path fill="#3a414a" d="M205 0l-28-72H64L36 0H1l101-248h38L239 0h-34zm-38-99l-47-123c-12 45-31 82-46 123h93" id="aq"/><g id="m"><use transform="matrix(0.06790123456790124,0,0,0.06790123456790124,0,0)" xlink:href="#aq"/><use transform="matrix(0.06790123456790124,0,0,0.06790123456790124,16.296296296296298,0)" xlink:href="#W"/><use transform="matrix(0.06790123456790124,0,0,0.06790123456790124,24.376543209876544,0)" xlink:href="#ap"/><use transform="matrix(0.06790123456790124,0,0,0.06790123456790124,36.598765432098766,0)" xlink:href="#ai"/><use transform="matrix(0.06790123456790124,0,0,0.06790123456790124,50.17901234567901,0)" xlink:href="#an"/><use transform="matrix(0.06790123456790124,0,0,0.06790123456790124,55.54320987654321,0)" xlink:href="#al"/><use transform="matrix(0.06790123456790124,0,0,0.06790123456790124,67.76543209876543,0)" xlink:href="#an"/><use transform="matrix(0.06790123456790124,0,0,0.06790123456790124,73.12962962962965,0)" xlink:href="#V"/><use transform="matrix(0.06790123456790124,0,0,0.06790123456790124,86.70987654320989,0)" xlink:href="#W"/><use transform="matrix(0.06790123456790124,0,0,0.06790123456790124,94.79012345679014,0)" xlink:href="#S"/><use transform="matrix(0.06790123456790124,0,0,0.06790123456790124,108.3703703703704,0)" xlink:href="#ak"/><use transform="matrix(0.06790123456790124,0,0,0.06790123456790124,121.95061728395065,0)" xlink:href="#ao"/><use transform="matrix(0.06790123456790124,0,0,0.06790123456790124,135.5308641975309,0)" xlink:href="#T"/><use transform="matrix(0.06790123456790124,0,0,0.06790123456790124,147.75308641975312,0)" xlink:href="#Y"/></g><g id="n"><use transform="matrix(0.06790123456790124,0,0,0.06790123456790124,0,0)" xlink:href="#Z"/><use transform="matrix(0.06790123456790124,0,0,0.06790123456790124,16.296296296296298,0)" xlink:href="#aa"/><use transform="matrix(0.06790123456790124,0,0,0.06790123456790124,28.51851851851852,0)" xlink:href="#T"/><use transform="matrix(0.06790123456790124,0,0,0.06790123456790124,40.74074074074074,0)" xlink:href="#U"/><use transform="matrix(0.06790123456790124,0,0,0.06790123456790124,47.530864197530875,0)" xlink:href="#V"/><use transform="matrix(0.06790123456790124,0,0,0.06790123456790124,61.111111111111114,0)" xlink:href="#ab"/></g><path fill="#3a414a" d="M115-194c55 1 70 41 70 98S169 2 115 4C84 4 66-9 55-30l1 105H24l-1-265h31l2 30c10-21 28-34 59-34zm-8 174c40 0 45-34 45-75s-6-73-45-74c-42 0-51 32-51 76 0 43 10 73 51 73" id="ar"/><path fill="#3a414a" d="M141-36C126-15 110 5 73 4 37 3 15-17 15-53c-1-64 63-63 125-63 3-35-9-54-41-54-24 1-41 7-42 31l-33-3c5-37 33-52 76-52 45 0 72 20 72 64v82c-1 20 7 32 28 27v20c-31 9-61-2-59-35zM48-53c0 20 12 33 32 33 41-3 63-29 60-74-43 2-92-5-92 41zm70-161v-33h29v33h-29zm-69 0v-33h29v33H49" id="as"/><g id="o"><use transform="matrix(0.06790123456790124,0,0,0.06790123456790124,0,0)" xlink:href="#Z"/><use transform="matrix(0.06790123456790124,0,0,0.06790123456790124,16.296296296296298,0)" xlink:href="#ar"/><use transform="matrix(0.06790123456790124,0,0,0.06790123456790124,29.876543209876544,0)" xlink:href="#as"/><use transform="matrix(0.06790123456790124,0,0,0.06790123456790124,43.45679012345679,0)" xlink:href="#U"/><use transform="matrix(0.06790123456790124,0,0,0.06790123456790124,50.24691358024692,0)" xlink:href="#V"/><use transform="matrix(0.06790123456790124,0,0,0.06790123456790124,63.827160493827165,0)" xlink:href="#W"/><use transform="matrix(0.06790123456790124,0,0,0.06790123456790124,71.90740740740742,0)" xlink:href="#V"/></g><g id="p"><use transform="matrix(0.06790123456790124,0,0,0.06790123456790124,0,0)" xlink:href="#aq"/><use transform="matrix(0.06790123456790124,0,0,0.06790123456790124,16.296296296296298,0)" xlink:href="#S"/><use transform="matrix(0.06790123456790124,0,0,0.06790123456790124,29.876543209876544,0)" xlink:href="#T"/><use transform="matrix(0.06790123456790124,0,0,0.06790123456790124,42.098765432098766,0)" xlink:href="#am"/><use transform="matrix(0.06790123456790124,0,0,0.06790123456790124,55.67901234567901,0)" xlink:href="#N"/><use transform="matrix(0.06790123456790124,0,0,0.06790123456790124,69.25925925925927,0)" xlink:href="#S"/><use transform="matrix(0.06790123456790124,0,0,0.06790123456790124,82.83950617283952,0)" xlink:href="#T"/><use transform="matrix(0.06790123456790124,0,0,0.06790123456790124,95.06172839506175,0)" xlink:href="#U"/><use transform="matrix(0.06790123456790124,0,0,0.06790123456790124,101.85185185185188,0)" xlink:href="#S"/><use transform="matrix(0.06790123456790124,0,0,0.06790123456790124,115.43209876543213,0)" xlink:href="#O"/><use transform="matrix(0.06790123456790124,0,0,0.06790123456790124,122.22222222222226,0)" xlink:href="#V"/><use transform="matrix(0.06790123456790124,0,0,0.06790123456790124,135.8024691358025,0)" xlink:href="#ak"/></g><path fill="#3a414a" d="M137 0h-34L2-248h35l83 218 83-218h36" id="at"/><path fill="#3a414a" d="M30-248c87 1 191-15 191 75 0 78-77 80-158 76V0H30v-248zm33 125c57 0 124 11 124-50 0-59-68-47-124-48v98" id="au"/><g id="q"><use transform="matrix(0.06790123456790124,0,0,0.06790123456790124,0,0)" xlink:href="#ad"/><use transform="matrix(0.06790123456790124,0,0,0.06790123456790124,20.302469135802472,0)" xlink:href="#at"/><use transform="matrix(0.06790123456790124,0,0,0.06790123456790124,36.59876543209877,0)" xlink:href="#au"/></g><path fill="#3a414a" d="M30 0v-248h33v221h125V0H30" id="av"/><path fill="#3a414a" d="M85-194c31 0 48 13 60 33l-1-100h32l1 261h-30c-2-10 0-23-3-31C134-8 116 4 85 4 32 4 16-35 15-94c0-66 23-100 70-100zm9 24c-40 0-46 34-46 75 0 40 6 74 45 74 42 0 51-32 51-76 0-42-9-74-50-73" id="aw"/><path fill="#3a414a" d="M33-154v-36h34v36H33zM33 0v-36h34V0H33" id="ax"/><g id="r"><use transform="matrix(0.06172839506172839,0,0,0.06172839506172839,0,0)" xlink:href="#av"/><use transform="matrix(0.06172839506172839,0,0,0.06172839506172839,12.345679012345679,0)" xlink:href="#V"/><use transform="matrix(0.06172839506172839,0,0,0.06172839506172839,24.691358024691358,0)" xlink:href="#ao"/><use transform="matrix(0.06172839506172839,0,0,0.06172839506172839,37.03703703703704,0)" xlink:href="#V"/><use transform="matrix(0.06172839506172839,0,0,0.06172839506172839,49.382716049382715,0)" xlink:href="#ak"/><use transform="matrix(0.06172839506172839,0,0,0.06172839506172839,61.72839506172839,0)" xlink:href="#aw"/><use transform="matrix(0.06172839506172839,0,0,0.06172839506172839,74.07407407407408,0)" xlink:href="#V"/><use transform="matrix(0.06172839506172839,0,0,0.06172839506172839,86.41975308641976,0)" xlink:href="#ax"/></g></defs></g></svg>