<svg xmlns="http://www.w3.org/2000/svg" xmlns:xlink="http://www.w3.org/1999/xlink" xmlns:lucid="lucid" width="2100" height="1000"><g transform="translate(220 940)" lucid:page-tab-id="CVdc4EUXPgp_"><path d="M-500-1000h2500V500H-500z" fill="#fff"/><path d="M-220-934a6 6 0 0 1 6-6h2088a6 6 0 0 1 6 6V54a6 6 0 0 1-6 6H-214a6 6 0 0 1-6-6z" stroke="#000" stroke-opacity="0" stroke-width="2" fill="#fff"/><path d="M-175.2-907.07a6 6 0 0 1 6-6h108a6 6 0 0 1 6 6v88a6 6 0 0 1-6 6h-108a6 6 0 0 1-6-6z" stroke="#000" stroke-width="2" fill="#f2f3f5"/><use xlink:href="#a" transform="matrix(1,0,0,1,-175.18888888888864,-913.0666666666666) translate(31.930925925925926 55.70833333333333)"/><path d="M-115.2-811.57v5.02m0 5v10.03m0 5.02v10.02m0 5v10.04m0 5v10.04m0 5v10.03m0 5.02v10.02m0 5v10.04m0 5.02v10.03m0 5v10.04m0 5v10.02m0 5.02v10.02m0 5v10.04m0 5v10.04m0 5v10.03m0 5.02v10m0 5.02v10.03m0 5v10.04m0 5v10.02m0 5.02v10.02m0 5v10.04m0 5v10.04m0 5v10.04m0 5v10.03m0 5.03v10.02m0 5v10.04m0 5v10.03m0 5v10.03m0 5.02v10.02m0 5v10.04m0 5v10.04m0 5v10.04m0 5v10.03m0 5.02v10.02m0 5v10.03m0 5v10.04m0 5v10.03m0 5.02v10.02m0 5v10.04m0 5v10.04m0 5v10.04m0 5V-190m0 5v10.03m0 5v10.04m0 5v10.04m0 5.02v10.02m0 5.02v10.02m0 5v10.04m0 5v10.04m0 5v10.03m0 5v10.03m0 5.02v10.02m0 5v10.04m0 5.02v5" stroke="#000" fill="none"/><path d="M-114.7-811.55h-.96v-.52h.95z" stroke="#000" stroke-width=".05"/><path d="M-115.2-14.58v.5M124.8-811.57v5.02m0 5v10.03m0 5.02v10.02m0 5v10.04m0 5v10.04m0 5v10.03m0 5.02v10.02m0 5v10.04m0 5.02v10.03m0 5v10.04m0 5v10.02m0 5.02v10.02m0 5v10.04m0 5v10.04m0 5v10.03m0 5.02v10m0 5.02v10.03m0 5v10.04m0 5v10.02m0 5.02v10.02m0 5v10.04m0 5v10.04m0 5v10.04m0 5v10.03m0 5.03v10.02m0 5v10.04m0 5v10.03m0 5v10.03m0 5.02v10.02m0 5v10.04m0 5v10.04m0 5v10.04m0 5v10.03m0 5.02v10.02m0 5v10.03m0 5v10.04m0 5v10.03m0 5.02v10.02m0 5v10.04m0 5v10.04m0 5v10.04m0 5V-190m0 5v10.03m0 5v10.04m0 5v10.04m0 5.02v10.02m0 5.02v10.02m0 5v10.04m0 5v10.04m0 5v10.03m0 5v10.03m0 5.02v10.02m0 5v10.04m0 5.02v5" stroke="#000" fill="none"/><path d="M125.3-811.55h-.96v-.52h.95z" stroke="#000" stroke-width=".05"/><path d="M124.8-14.58v.5M497.26-811.57v5.02m0 5v10.03m0 5.02v10.02m0 5v10.04m0 5v10.04m0 5v10.03m0 5.02v10.02m0 5v10.04m0 5.02v10.03m0 5v10.04m0 5v10.02m0 5.02v10.02m0 5v10.04m0 5v10.04m0 5v10.03m0 5.02v10m0 5.02v10.03m0 5v10.04m0 5v10.02m0 5.02v10.02m0 5v10.04m0 5v10.04m0 5v10.04m0 5v10.03m0 5.03v10.02m0 5v10.04m0 5v10.03m0 5v10.03m0 5.02v10.02m0 5v10.04m0 5v10.04m0 5v10.04m0 5v10.03m0 5.02v10.02m0 5v10.03m0 5v10.04m0 5v10.03m0 5.02v10.02m0 5v10.04m0 5v10.04m0 5v10.04m0 5V-190m0 5v10.03m0 5v10.04m0 5v10.04m0 5.02v10.02m0 5.02v10.02m0 5v10.04m0 5v10.04m0 5v10.03m0 5v10.03m0 5.02v10.02m0 5v10.04m0 5.02v5" stroke="#000" fill="none"/><path d="M497.74-811.55h-.95v-.52h.94z" stroke="#000" stroke-width=".05"/><path d="M497.26-14.58v.5M914.85-811.57v5.02m0 5v10.03m0 5.02v10.02m0 5v10.04m0 5v10.04m0 5v10.03m0 5.02v10.02m0 5v10.04m0 5.02v10.03m0 5v10.04m0 5v10.02m0 5.02v10.02m0 5v10.04m0 5v10.04m0 5v10.03m0 5.02v10m0 5.02v10.03m0 5v10.04m0 5v10.02m0 5.02v10.02m0 5v10.04m0 5v10.04m0 5v10.04m0 5v10.03m0 5.03v10.02m0 5v10.04m0 5v10.03m0 5v10.03m0 5.02v10.02m0 5v10.04m0 5v10.04m0 5v10.04m0 5v10.03m0 5.02v10.02m0 5v10.03m0 5v10.04m0 5v10.03m0 5.02v10.02m0 5v10.04m0 5v10.04m0 5v10.04m0 5V-190m0 5v10.03m0 5v10.04m0 5v10.04m0 5.02v10.02m0 5.02v10.02m0 5v10.04m0 5v10.04m0 5v10.03m0 5v10.03m0 5.02v10.02m0 5v10.04m0 5.02v5" stroke="#000" fill="none"/><path d="M915.32-811.55h-.95v-.52h.95z" stroke="#000" stroke-width=".05"/><path d="M914.85-14.58v.5M1229.9-811.57v5.02m0 5v10.03m0 5.02v10.02m0 5v10.04m0 5v10.04m0 5v10.03m0 5.02v10.02m0 5v10.04m0 5.02v10.03m0 5v10.04m0 5v10.02m0 5.02v10.02m0 5v10.04m0 5v10.04m0 5v10.03m0 5.02v10m0 5.02v10.03m0 5v10.04m0 5v10.02m0 5.02v10.02m0 5v10.04m0 5v10.04m0 5v10.04m0 5v10.03m0 5.03v10.02m0 5v10.04m0 5v10.03m0 5v10.03m0 5.02v10.02m0 5v10.04m0 5v10.04m0 5v10.04m0 5v10.03m0 5.02v10.02m0 5v10.03m0 5v10.04m0 5v10.03m0 5.02v10.02m0 5v10.04m0 5v10.04m0 5v10.04m0 5V-190m0 5v10.03m0 5v10.04m0 5v10.04m0 5.02v10.02m0 5.02v10.02m0 5v10.04m0 5v10.04m0 5v10.03m0 5v10.03m0 5.02v10.02m0 5v10.04m0 5.02v5" stroke="#000" fill="none"/><path d="M1230.38-811.55h-.95v-.52h.95z" stroke="#000" stroke-width=".05"/><path d="M1229.9-14.58v.5M1631.04-811.57v5.02m0 5v10.03m0 5.02v10.02m0 5v10.04m0 5v10.04m0 5v10.03m0 5.02v10.02m0 5v10.04m0 5.02v10.03m0 5v10.04m0 5v10.02m0 5.02v10.02m0 5v10.04m0 5v10.04m0 5v10.03m0 5.02v10m0 5.02v10.03m0 5v10.04m0 5v10.02m0 5.02v10.02m0 5v10.04m0 5v10.04m0 5v10.04m0 5v10.03m0 5.03v10.02m0 5v10.04m0 5v10.03m0 5v10.03m0 5.02v10.02m0 5v10.04m0 5v10.04m0 5v10.04m0 5v10.03m0 5.02v10.02m0 5v10.03m0 5v10.04m0 5v10.03m0 5.02v10.02m0 5v10.04m0 5v10.04m0 5v10.04m0 5V-190m0 5v10.03m0 5v10.04m0 5v10.04m0 5.02v10.02m0 5.02v10.02m0 5v10.04m0 5v10.04m0 5v10.03m0 5v10.03m0 5.02v10.02m0 5v10.04m0 5.02v5" stroke="#000" fill="none"/><path d="M1631.52-811.55h-.95v-.52h.95z" stroke="#000" stroke-width=".05"/><path d="M1631.04-14.58v.5" stroke="#000" fill="none"/><path d="M64.8-907.07a6 6 0 0 1 6-6h108a6 6 0 0 1 6 6v88a6 6 0 0 1-6 6h-108a6 6 0 0 1-6-6z" stroke="#000" stroke-width="2" fill="#f2f3f5"/><use xlink:href="#b" transform="matrix(1,0,0,1,64.81111111111136,-913.0666666666666) translate(29.745740740740743 55.70833333333333)"/><path d="M304.8-907.07a6 6 0 0 1 6-6h372.9a6 6 0 0 1 6 6v88a6 6 0 0 1-6 6H310.8a6 6 0 0 1-6-6z" stroke="#000" stroke-width="2" fill="#f2f3f5"/><use xlink:href="#c" transform="matrix(1,0,0,1,304.81111111111136,-913.0666666666666) translate(36.39388888888889 40.08333333333333)"/><use xlink:href="#d" transform="matrix(1,0,0,1,304.81111111111136,-913.0666666666666) translate(143.72722222222222 72.08333333333331)"/><path d="M809.7-907.07a6 6 0 0 1 6-6H1014a6 6 0 0 1 6 6v88a6 6 0 0 1-6 6H815.7a6 6 0 0 1-6-6z" stroke="#000" stroke-width="2" fill="#f2f3f5"/><use xlink:href="#e" transform="matrix(1,0,0,1,809.7123456790125,-913.0666666666666) translate(72.48648148148149 40.08333333333333)"/><use xlink:href="#f" transform="matrix(1,0,0,1,809.7123456790125,-913.0666666666666) translate(37.41240740740742 72.08333333333331)"/><path d="M1139.98-907.07a6 6 0 0 1 6-6h167.84a6 6 0 0 1 6 6v88a6 6 0 0 1-6 6h-167.84a6 6 0 0 1-6-6z" stroke="#000" stroke-width="2" fill="#f2f3f5"/><use xlink:href="#g" transform="matrix(1,0,0,1,1139.983950617284,-913.0666666666666) translate(8.153148148148157 55.70833333333333)"/><path d="M1439.82-907.07a6 6 0 0 1 6-6h370.44a6 6 0 0 1 6 6v88a6 6 0 0 1-6 6h-370.44a6 6 0 0 1-6-6z" stroke="#000" stroke-width="2" fill="#f2f3f5"/><use xlink:href="#h" transform="matrix(1,0,0,1,1439.8234567901236,-913.0666666666666) translate(32.005 40.08333333333333)"/><use xlink:href="#i" transform="matrix(1,0,0,1,1439.8234567901236,-913.0666666666666) translate(146.5975925925926 72.08333333333331)"/><path d="M104.8-747.07a6 6 0 0 1 6-6h28a6 6 0 0 1 6 6v108a6 6 0 0 1-6 6h-28a6 6 0 0 1-6-6zM104.8-347.07a6 6 0 0 1 6-6h28a6 6 0 0 1 6 6v48a6 6 0 0 1-6 6h-28a6 6 0 0 1-6-6zM104.8-254a6 6 0 0 1 6-6h28a6 6 0 0 1 6 6v194.93a6 6 0 0 1-6 6h-28a6 6 0 0 1-6-6zM477.26-627.07a6 6 0 0 1 6-6h28a6 6 0 0 1 6 6v208a6 6 0 0 1-6 6h-28a6 6 0 0 1-6-6zM894.85-407.07a6 6 0 0 1 6-6h28a6 6 0 0 1 6 6v48a6 6 0 0 1-6 6h-28a6 6 0 0 1-6-6zM1611.04-332.94a6 6 0 0 1 6-6h28a6 6 0 0 1 6 6v81.06a6 6 0 0 1-6 6h-28a6 6 0 0 1-6-6zM1209.9-227.07a6 6 0 0 1 6-6h28a6 6 0 0 1 6 6v168a6 6 0 0 1-6 6h-28a6 6 0 0 1-6-6z" stroke="#000" stroke-width="2" fill="#f2f3f5"/><path d="M-114.7-752.2l219.15.77M-114.68-752.2l-.5-.02M87.07-761.5l17.3 10.07L87-741.5" stroke="#000" fill="none"/><use xlink:href="#j" transform="matrix(1,0,0,1,-144.8685910327054,-792.4775942714477) translate(0 17.772977297729774)"/><use xlink:href="#k" transform="matrix(1,0,0,1,-144.8685910327054,-792.4775942714477) translate(149.0955317753998 17.772977297729774)"/><path d="M103.3-669.14h-5.17m-5.18 0H82.58m-5.18 0H67.03m-5.18 0H51.5m-5.2 0H35.94m-5.18 0H20.4m-5.2 0H4.85m-5.18 0H-10.7m-5.2 0h-10.35m-5.18 0H-41.8m-5.18 0h-10.37m-5.18 0H-72.9m-5.17 0h-10.37m-5.18 0h-5.2" stroke="#000" fill="none"/><path d="M103.8-668.67h-.5v-.95h.5z" stroke="#000" stroke-width=".05"/><path d="M-113.57-669.14l14.26-4.64v9.27z" stroke="#000"/><use xlink:href="#l" transform="matrix(1,0,0,1,-88.2591431753972,-726.4617382508201) translate(0 17.772977297729774)"/><use xlink:href="#m" transform="matrix(1,0,0,1,-88.2591431753972,-726.4617382508201) translate(0 44.43244324432443)"/><use xlink:href="#n" transform="matrix(1,0,0,1,-88.2591431753972,-726.4617382508201) translate(51.77613872498361 44.43244324432443)"/><path d="M144.77-634.7l331.92 3.5" stroke="#000" fill="none"/><path d="M144.78-635.17v.95h-.92l.62-.73.13-.22z" stroke="#000" stroke-width=".05"/><path d="M459.4-641.38l17.2 10.18-17.42 9.82" stroke="#000" fill="none"/><use xlink:href="#o" transform="matrix(1,0,0,1,194.51156253364385,-663.5478831709348) translate(0 17.772977297729774)"/><use xlink:href="#p" transform="matrix(1,0,0,1,194.51156253364385,-663.5478831709348) translate(112.19191919191918 17.772977297729774)"/><path d="M517.76-593.07h99.5v38.5h-98.1" stroke="#000" fill="none"/><path stroke="#000" stroke-width=".05"/><path d="M536.58-544.57l-17.32-10 17.32-10" stroke="#000" fill="none"/><use xlink:href="#q" transform="matrix(1,0,0,1,625.2617283950619,-587.6463182097344) translate(0 17.772977297729774)"/><use xlink:href="#r" transform="matrix(1,0,0,1,625.2617283950619,-587.6463182097344) translate(91.20993210432154 17.772977297729774)"/><path d="M518.76-512.57h98.5v39.5h-99.1" stroke="#000" fill="none"/><path d="M518.77-512.1h-.5v-.94h.5z" stroke="#000" stroke-width=".05"/><path d="M535.58-463.07l-17.32-10 17.32-10" stroke="#000" fill="none"/><use xlink:href="#s" transform="matrix(1,0,0,1,625.2617283950619,-505.64643335391423) translate(0 17.772977297729774)"/><use xlink:href="#t" transform="matrix(1,0,0,1,625.2617283950619,-505.64643335391423) translate(129.34777922236668 17.772977297729774)"/><path d="M517.42-414.94l377.37 3.14" stroke="#000" fill="none"/><path d="M517.44-415.4v.94h-.92l.4-.5.3-.46z" stroke="#000" stroke-width=".05"/><path d="M877.46-421.94l17.24 10.14-17.4 9.86" stroke="#000" fill="none"/><use xlink:href="#u" transform="matrix(1,0,0,1,600.5560772950232,-443.99607934399904) translate(0 17.772977297729774)"/><use xlink:href="#v" transform="matrix(1,0,0,1,600.5560772950232,-443.99607934399904) translate(50.54190419041905 17.772977297729774)"/><use xlink:href="#w" transform="matrix(1,0,0,1,600.5560772950232,-443.99607934399904) translate(199.63743596581884 17.772977297729774)"/><path d="M895.2-354.34l-750.33 2.55" stroke="#000" fill="none"/><path d="M895.9-354.1l.28.23h-1v-.95h.12z" stroke="#000" stroke-width=".05"/><path d="M162.3-341.85l-17.34-9.94 17.3-10.05" stroke="#000" fill="none"/><use xlink:href="#u" transform="matrix(1,0,0,1,404.22291668252075,-383.7212728626308) translate(0 17.772977297729774)"/><use xlink:href="#v" transform="matrix(1,0,0,1,404.22291668252075,-383.7212728626308) translate(50.54190419041905 17.772977297729774)"/><use xlink:href="#w" transform="matrix(1,0,0,1,404.22291668252075,-383.7212728626308) translate(199.63743596581884 17.772977297729774)"/><path d="M144.46-294.34h1464.67" stroke="#000" fill="none"/><path d="M144.47-293.87h-1l.3-.25.6-.7h.1z" stroke="#000" stroke-width=".05"/><path d="M1591.72-304.34l17.32 10-17.32 10" stroke="#000" fill="none"/><use xlink:href="#x" transform="matrix(1,0,0,1,714.9135440659601,-325.0039470091182) translate(0 17.772977297729774)"/><use xlink:href="#y" transform="matrix(1,0,0,1,714.9135440659601,-325.0039470091182) translate(111.01939638408284 17.772977297729774)"/><path d="M146.3-233.07l1063.1 1.8" stroke="#000" fill="none"/><path d="M146.32-233.54v.95h-.5v-.94z" stroke="#000" stroke-width=".05"/><path d="M1192-241.3l17.3 10.04-17.33 9.97" stroke="#000" fill="none"/><use xlink:href="#z" transform="matrix(1,0,0,1,571.0173621713554,-262.82227725476565) translate(0 17.772977297729774)"/><use xlink:href="#A" transform="matrix(1,0,0,1,571.0173621713554,-262.82227725476565) translate(78.86758675867587 17.772977297729774)"/><path d="M20-207.07a6 6 0 0 1 6-6h47.8a6 6 0 0 1 6 6v11.78a14.48 14.48 0 0 1-4.24 10.25l-1.52 1.52a14.48 14.48 0 0 1-10.24 4.24H26a6 6 0 0 1-6-6z" fill="#f2f3f5"/><path d="M79.8-213.07v23.78l-10 10H20" stroke="#000" stroke-width="2" fill="none"/><path d="M20-207.07a6 6 0 0 1 6-6h1227.9a6 6 0 0 1 6 6v108a6 6 0 0 1-6 6H26a6 6 0 0 1-6-6z" stroke="#000" stroke-width="2" fill="none"/><g><use xlink:href="#B" transform="matrix(1,0,0,1,28,-213.0666666666666) translate(0 22.333333333333332)"/></g><g><use xlink:href="#C" transform="matrix(1,0,0,1,32,-171.28888888888883) translate(11.777777777777828 21.333333333333332)"/><use xlink:href="#D" transform="matrix(1,0,0,1,32,-171.28888888888883) translate(107.48148148148151 21.333333333333332)"/></g><path d="M1208.4-111.57l-1061.68-1.5" stroke="#000" fill="none"/><path d="M1208.9-112.04v.95h-.5v-.94z" stroke="#000" stroke-width=".05"/><path d="M164.12-103.04l-17.3-10.02 17.33-9.98" stroke="#000" fill="none"/><g><use xlink:href="#u" transform="matrix(1,0,0,1,520.2072910548425,-142.9745746146608) translate(0 17.772977297729774)"/><use xlink:href="#E" transform="matrix(1,0,0,1,520.2072910548425,-142.9745746146608) translate(50.54190419041905 17.772977297729774)"/><use xlink:href="#F" transform="matrix(1,0,0,1,520.2072910548425,-142.9745746146608) translate(183.40725183629473 17.772977297729774)"/><use xlink:href="#G" transform="matrix(1,0,0,1,520.2072910548425,-142.9745746146608) translate(214.2014034736807 17.772977297729774)"/><use xlink:href="#w" transform="matrix(1,0,0,1,520.2072910548425,-142.9745746146608) translate(293.00727850562834 17.772977297729774)"/></g><path d="M103.3-324.45h-5.17m-5.18 0H82.58m-5.18 0H67.03m-5.18 0H51.5m-5.2 0H35.94m-5.18 0H20.4m-5.2 0H4.85m-5.18 0H-10.7m-5.2 0h-10.35m-5.18 0H-41.8m-5.18 0h-10.37m-5.18 0H-72.9m-5.17 0h-10.37m-5.18 0h-5.2" stroke="#000" fill="none"/><path d="M103.8-323.97h-.5v-.95h.5z" stroke="#000" stroke-width=".05"/><path d="M-113.57-324.45l14.26-4.63v9.27z" stroke="#000"/><g><use xlink:href="#H" transform="matrix(1,0,0,1,-73.41748541338593,-381.76825348850366) translate(0.0049999999999954525 17.772977297729774)"/><use xlink:href="#I" transform="matrix(1,0,0,1,-73.41748541338593,-381.76825348850366) translate(10.465137680434708 44.43244324432443)"/></g><defs><path d="M232-93c-1 65-40 97-104 97C67 4 28-28 28-90v-158h33c8 89-33 224 67 224 102 0 64-133 71-224h33v155" id="J"/><path d="M135-143c-3-34-86-38-87 0 15 53 115 12 119 90S17 21 10-45l28-5c4 36 97 45 98 0-10-56-113-15-118-90-4-57 82-63 122-42 12 7 21 19 24 35" id="K"/><path d="M100-194c63 0 86 42 84 106H49c0 40 14 67 53 68 26 1 43-12 49-29l28 8c-11 28-37 45-77 45C44 4 14-33 15-96c1-61 26-98 85-98zm52 81c6-60-76-77-97-28-3 7-6 17-6 28h103" id="L"/><path d="M114-163C36-179 61-72 57 0H25l-1-190h30c1 12-1 29 2 39 6-27 23-49 58-41v29" id="M"/><g id="a"><use transform="matrix(0.07407407407407407,0,0,0.07407407407407407,0,0)" xlink:href="#J"/><use transform="matrix(0.07407407407407407,0,0,0.07407407407407407,19.185185185185183,0)" xlink:href="#K"/><use transform="matrix(0.07407407407407407,0,0,0.07407407407407407,32.51851851851852,0)" xlink:href="#L"/><use transform="matrix(0.07407407407407407,0,0,0.07407407407407407,47.33333333333333,0)" xlink:href="#M"/></g><path d="M212-179c-10-28-35-45-73-45-59 0-87 40-87 99 0 60 29 101 89 101 43 0 62-24 78-52l27 14C228-24 195 4 139 4 59 4 22-46 18-125c-6-104 99-153 187-111 19 9 31 26 39 46" id="N"/><path d="M233-177c-1 41-23 64-60 70L243 0h-38l-65-103H63V0H30v-248c88 3 205-21 203 71zM63-129c60-2 137 13 137-47 0-61-80-42-137-45v92" id="O"/><path d="M240 0l2-218c-23 76-54 145-80 218h-23L58-218 59 0H30v-248h44l77 211c21-75 51-140 76-211h43V0h-30" id="P"/><g id="b"><use transform="matrix(0.07407407407407407,0,0,0.07407407407407407,0,0)" xlink:href="#N"/><use transform="matrix(0.07407407407407407,0,0,0.07407407407407407,19.185185185185183,0)" xlink:href="#O"/><use transform="matrix(0.07407407407407407,0,0,0.07407407407407407,38.37037037037037,0)" xlink:href="#P"/></g><path d="M30-248c118-7 216 8 213 122C240-48 200 0 122 0H30v-248zM63-27c89 8 146-16 146-99s-60-101-146-95v194" id="Q"/><path d="M100-194c62-1 85 37 85 99 1 63-27 99-86 99S16-35 15-95c0-66 28-99 85-99zM99-20c44 1 53-31 53-75 0-43-8-75-51-75s-53 32-53 75 10 74 51 75" id="R"/><path d="M143 0L79-87 56-68V0H24v-261h32v163l83-92h37l-77 82L181 0h-38" id="S"/><path d="M84 4C-5 8 30-112 23-190h32v120c0 31 7 50 39 49 72-2 45-101 50-169h31l1 190h-30c-1-10 1-25-2-33-11 22-28 36-60 37" id="T"/><path d="M210-169c-67 3-38 105-44 169h-31v-121c0-29-5-50-35-48C34-165 62-65 56 0H25l-1-190h30c1 10-1 24 2 32 10-44 99-50 107 0 11-21 27-35 58-36 85-2 47 119 55 194h-31v-121c0-29-5-49-35-48" id="U"/><path d="M117-194c89-4 53 116 60 194h-32v-121c0-31-8-49-39-48C34-167 62-67 57 0H25l-1-190h30c1 10-1 24 2 32 11-22 29-35 61-36" id="V"/><path d="M59-47c-2 24 18 29 38 22v24C64 9 27 4 27-40v-127H5v-23h24l9-43h21v43h35v23H59v120" id="W"/><path d="M108 0H70L1-190h34L89-25l56-165h34" id="X"/><path d="M141-36C126-15 110 5 73 4 37 3 15-17 15-53c-1-64 63-63 125-63 3-35-9-54-41-54-24 1-41 7-42 31l-33-3c5-37 33-52 76-52 45 0 72 20 72 64v82c-1 20 7 32 28 27v20c-31 9-61-2-59-35zM48-53c0 20 12 33 32 33 41-3 63-29 60-74-43 2-92-5-92 41" id="Y"/><path d="M115-194c53 0 69 39 70 98 0 66-23 100-70 100C84 3 66-7 56-30L54 0H23l1-261h32v101c10-23 28-34 59-34zm-8 174c40 0 45-34 45-75 0-40-5-75-45-74-42 0-51 32-51 76 0 43 10 73 51 73" id="Z"/><path d="M24-231v-30h32v30H24zM24 0v-190h32V0H24" id="aa"/><path d="M177-190C167-65 218 103 67 71c-23-6-38-20-44-43l32-5c15 47 100 32 89-28v-30C133-14 115 1 83 1 29 1 15-40 15-95c0-56 16-97 71-98 29-1 48 16 59 35 1-10 0-23 2-32h30zM94-22c36 0 50-32 50-73 0-42-14-75-50-75-39 0-46 34-46 75s6 73 46 73" id="ab"/><g id="c"><use transform="matrix(0.07407407407407406,0,0,0.07407407407407406,0,0)" xlink:href="#Q"/><use transform="matrix(0.07407407407407406,0,0,0.07407407407407406,19.18518518518518,0)" xlink:href="#R"/><use transform="matrix(0.07407407407407406,0,0,0.07407407407407406,33.99999999999999,0)" xlink:href="#S"/><use transform="matrix(0.07407407407407406,0,0,0.07407407407407406,47.33333333333332,0)" xlink:href="#T"/><use transform="matrix(0.07407407407407406,0,0,0.07407407407407406,62.14814814814813,0)" xlink:href="#U"/><use transform="matrix(0.07407407407407406,0,0,0.07407407407407406,84.29629629629628,0)" xlink:href="#L"/><use transform="matrix(0.07407407407407406,0,0,0.07407407407407406,99.11111111111109,0)" xlink:href="#V"/><use transform="matrix(0.07407407407407406,0,0,0.07407407407407406,113.9259259259259,0)" xlink:href="#W"/><use transform="matrix(0.07407407407407406,0,0,0.07407407407407406,121.3333333333333,0)" xlink:href="#L"/><use transform="matrix(0.07407407407407406,0,0,0.07407407407407406,136.14814814814812,0)" xlink:href="#V"/><use transform="matrix(0.07407407407407406,0,0,0.07407407407407406,150.96296296296293,0)" xlink:href="#X"/><use transform="matrix(0.07407407407407406,0,0,0.07407407407407406,164.29629629629628,0)" xlink:href="#L"/><use transform="matrix(0.07407407407407406,0,0,0.07407407407407406,179.11111111111111,0)" xlink:href="#M"/><use transform="matrix(0.07407407407407406,0,0,0.07407407407407406,187.92592592592587,0)" xlink:href="#Y"/><use transform="matrix(0.07407407407407406,0,0,0.07407407407407406,202.7407407407407,0)" xlink:href="#M"/><use transform="matrix(0.07407407407407406,0,0,0.07407407407407406,211.55555555555551,0)" xlink:href="#Z"/><use transform="matrix(0.07407407407407406,0,0,0.07407407407407406,226.37037037037032,0)" xlink:href="#L"/><use transform="matrix(0.07407407407407406,0,0,0.07407407407407406,241.18518518518513,0)" xlink:href="#aa"/><use transform="matrix(0.07407407407407406,0,0,0.07407407407407406,247.03703703703698,0)" xlink:href="#W"/><use transform="matrix(0.07407407407407406,0,0,0.07407407407407406,254.44444444444443,0)" xlink:href="#T"/><use transform="matrix(0.07407407407407406,0,0,0.07407407407407406,269.25925925925924,0)" xlink:href="#V"/><use transform="matrix(0.07407407407407406,0,0,0.07407407407407406,284.0740740740741,0)" xlink:href="#ab"/><use transform="matrix(0.07407407407407406,0,0,0.07407407407407406,298.8888888888889,0)" xlink:href="#K"/></g><path d="M16-82v-28h88v28H16" id="ac"/><path d="M185-189c-5-48-123-54-124 2 14 75 158 14 163 119 3 78-121 87-175 55-17-10-28-26-33-46l33-7c5 56 141 63 141-1 0-78-155-14-162-118-5-82 145-84 179-34 5 7 8 16 11 25" id="ad"/><path d="M96-169c-40 0-48 33-48 73s9 75 48 75c24 0 41-14 43-38l32 2c-6 37-31 61-74 61-59 0-76-41-82-99-10-93 101-131 147-64 4 7 5 14 7 22l-32 3c-4-21-16-35-41-35" id="ae"/><g id="d"><use transform="matrix(0.07407407407407406,0,0,0.07407407407407406,0,0)" xlink:href="#ac"/><use transform="matrix(0.07407407407407406,0,0,0.07407407407407406,8.814814814814813,0)" xlink:href="#ad"/><use transform="matrix(0.07407407407407406,0,0,0.07407407407407406,26.592592592592585,0)" xlink:href="#L"/><use transform="matrix(0.07407407407407406,0,0,0.07407407407407406,41.4074074074074,0)" xlink:href="#M"/><use transform="matrix(0.07407407407407406,0,0,0.07407407407407406,50.22222222222222,0)" xlink:href="#X"/><use transform="matrix(0.07407407407407406,0,0,0.07407407407407406,63.55555555555554,0)" xlink:href="#aa"/><use transform="matrix(0.07407407407407406,0,0,0.07407407407407406,69.40740740740739,0)" xlink:href="#ae"/><use transform="matrix(0.07407407407407406,0,0,0.07407407407407406,82.74074074074072,0)" xlink:href="#L"/></g><g id="e"><use transform="matrix(0.07407407407407406,0,0,0.07407407407407406,0,0)" xlink:href="#Q"/><use transform="matrix(0.07407407407407406,0,0,0.07407407407407406,19.18518518518518,0)" xlink:href="#Y"/><use transform="matrix(0.07407407407407406,0,0,0.07407407407407406,33.99999999999999,0)" xlink:href="#W"/><use transform="matrix(0.07407407407407406,0,0,0.07407407407407406,41.4074074074074,0)" xlink:href="#Y"/><use transform="matrix(0.07407407407407406,0,0,0.07407407407407406,56.22222222222221,0)" xlink:href="#ac"/></g><path d="M266 0h-40l-56-210L115 0H75L2-248h35L96-30l15-64 43-154h32l59 218 59-218h35" id="af"/><path d="M106-169C34-169 62-67 57 0H25v-261h32l-1 103c12-21 28-36 61-36 89 0 53 116 60 194h-32v-121c2-32-8-49-39-48" id="ag"/><g id="f"><use transform="matrix(0.07407407407407406,0,0,0.07407407407407406,0,0)" xlink:href="#af"/><use transform="matrix(0.07407407407407406,0,0,0.07407407407407406,24.14814814814814,0)" xlink:href="#Y"/><use transform="matrix(0.07407407407407406,0,0,0.07407407407407406,38.962962962962955,0)" xlink:href="#M"/><use transform="matrix(0.07407407407407406,0,0,0.07407407407407406,47.77777777777777,0)" xlink:href="#L"/><use transform="matrix(0.07407407407407406,0,0,0.07407407407407406,62.592592592592574,0)" xlink:href="#ag"/><use transform="matrix(0.07407407407407406,0,0,0.07407407407407406,77.40740740740739,0)" xlink:href="#R"/><use transform="matrix(0.07407407407407406,0,0,0.07407407407407406,92.2222222222222,0)" xlink:href="#T"/><use transform="matrix(0.07407407407407406,0,0,0.07407407407407406,107.03703703703701,0)" xlink:href="#K"/><use transform="matrix(0.07407407407407406,0,0,0.07407407407407406,120.37037037037034,0)" xlink:href="#L"/></g><path d="M140-251c81 0 123 46 123 126C263-46 219 4 140 4 59 4 17-45 17-125s42-126 123-126zm0 227c63 0 89-41 89-101s-29-99-89-99c-61 0-89 39-89 99S79-25 140-24" id="ah"/><path d="M101-234c-31-9-42 10-38 44h38v23H63V0H32v-167H5v-23h27c-7-52 17-82 69-68v24" id="ai"/><path d="M179-190L93 31C79 59 56 82 12 73V49c39 6 53-20 64-50L1-190h34L92-34l54-156h33" id="aj"/><g id="g"><use transform="matrix(0.07407407407407407,0,0,0.07407407407407407,0,0)" xlink:href="#ah"/><use transform="matrix(0.07407407407407407,0,0,0.07407407407407407,20.74074074074074,0)" xlink:href="#ai"/><use transform="matrix(0.07407407407407407,0,0,0.07407407407407407,27.62962962962963,0)" xlink:href="#ai"/><use transform="matrix(0.07407407407407407,0,0,0.07407407407407407,35.03703703703703,0)" xlink:href="#L"/><use transform="matrix(0.07407407407407407,0,0,0.07407407407407407,49.85185185185185,0)" xlink:href="#M"/><use transform="matrix(0.07407407407407407,0,0,0.07407407407407407,58.666666666666664,0)" xlink:href="#W"/><use transform="matrix(0.07407407407407407,0,0,0.07407407407407407,66.07407407407408,0)" xlink:href="#ac"/><use transform="matrix(0.07407407407407407,0,0,0.07407407407407407,74.88888888888889,0)" xlink:href="#ad"/><use transform="matrix(0.07407407407407407,0,0,0.07407407407407407,92.66666666666666,0)" xlink:href="#aj"/><use transform="matrix(0.07407407407407407,0,0,0.07407407407407407,106,0)" xlink:href="#K"/><use transform="matrix(0.07407407407407407,0,0,0.07407407407407407,119.33333333333331,0)" xlink:href="#W"/><use transform="matrix(0.07407407407407407,0,0,0.07407407407407407,126.74074074074072,0)" xlink:href="#L"/><use transform="matrix(0.07407407407407407,0,0,0.07407407407407407,141.55555555555554,0)" xlink:href="#U"/></g><g id="h"><use transform="matrix(0.07407407407407406,0,0,0.07407407407407406,0,0)" xlink:href="#Q"/><use transform="matrix(0.07407407407407406,0,0,0.07407407407407406,19.18518518518518,0)" xlink:href="#R"/><use transform="matrix(0.07407407407407406,0,0,0.07407407407407406,33.99999999999999,0)" xlink:href="#S"/><use transform="matrix(0.07407407407407406,0,0,0.07407407407407406,47.33333333333332,0)" xlink:href="#T"/><use transform="matrix(0.07407407407407406,0,0,0.07407407407407406,62.14814814814813,0)" xlink:href="#U"/><use transform="matrix(0.07407407407407406,0,0,0.07407407407407406,84.29629629629628,0)" xlink:href="#L"/><use transform="matrix(0.07407407407407406,0,0,0.07407407407407406,99.11111111111109,0)" xlink:href="#V"/><use transform="matrix(0.07407407407407406,0,0,0.07407407407407406,113.9259259259259,0)" xlink:href="#W"/><use transform="matrix(0.07407407407407406,0,0,0.07407407407407406,121.3333333333333,0)" xlink:href="#L"/><use transform="matrix(0.07407407407407406,0,0,0.07407407407407406,136.14814814814812,0)" xlink:href="#V"/><use transform="matrix(0.07407407407407406,0,0,0.07407407407407406,150.96296296296293,0)" xlink:href="#Y"/><use transform="matrix(0.07407407407407406,0,0,0.07407407407407406,165.77777777777774,0)" xlink:href="#M"/><use transform="matrix(0.07407407407407406,0,0,0.07407407407407406,174.59259259259255,0)" xlink:href="#ae"/><use transform="matrix(0.07407407407407406,0,0,0.07407407407407406,187.92592592592587,0)" xlink:href="#ag"/><use transform="matrix(0.07407407407407406,0,0,0.07407407407407406,202.7407407407407,0)" xlink:href="#aa"/><use transform="matrix(0.07407407407407406,0,0,0.07407407407407406,208.59259259259255,0)" xlink:href="#X"/><use transform="matrix(0.07407407407407406,0,0,0.07407407407407406,221.9259259259259,0)" xlink:href="#aa"/><use transform="matrix(0.07407407407407406,0,0,0.07407407407407406,227.77777777777774,0)" xlink:href="#L"/><use transform="matrix(0.07407407407407406,0,0,0.07407407407407406,242.59259259259258,0)" xlink:href="#M"/><use transform="matrix(0.07407407407407406,0,0,0.07407407407407406,251.40740740740733,0)" xlink:href="#T"/><use transform="matrix(0.07407407407407406,0,0,0.07407407407407406,266.2222222222222,0)" xlink:href="#V"/><use transform="matrix(0.07407407407407406,0,0,0.07407407407407406,281.037037037037,0)" xlink:href="#ab"/><use transform="matrix(0.07407407407407406,0,0,0.07407407407407406,295.85185185185185,0)" xlink:href="#K"/><use transform="matrix(0.07407407407407406,0,0,0.07407407407407406,309.18518518518516,0)" xlink:href="#ac"/></g><g id="i"><use transform="matrix(0.07407407407407406,0,0,0.07407407407407406,0,0)" xlink:href="#ad"/><use transform="matrix(0.07407407407407406,0,0,0.07407407407407406,17.777777777777775,0)" xlink:href="#aj"/><use transform="matrix(0.07407407407407406,0,0,0.07407407407407406,31.111111111111107,0)" xlink:href="#K"/><use transform="matrix(0.07407407407407406,0,0,0.07407407407407406,44.444444444444436,0)" xlink:href="#W"/><use transform="matrix(0.07407407407407406,0,0,0.07407407407407406,51.85185185185184,0)" xlink:href="#L"/><use transform="matrix(0.07407407407407406,0,0,0.07407407407407406,66.66666666666666,0)" xlink:href="#U"/></g><path d="M76-208v77h127v40H76V0H24v-248h183v40H76" id="ak"/><path d="M135-150c-39-12-60 13-60 57V0H25l-1-190h47c2 13-1 29 3 40 6-28 27-53 61-41v41" id="al"/><path d="M185-48c-13 30-37 53-82 52C43 2 14-33 14-96s30-98 90-98c62 0 83 45 84 108H66c0 31 8 55 39 56 18 0 30-7 34-22zm-45-69c5-46-57-63-70-21-2 6-4 13-4 21h74" id="am"/><path d="M220-157c-53 9-28 100-34 157h-49v-107c1-27-5-49-29-50C55-147 81-57 75 0H25l-1-190h47c2 12-1 28 3 38 10-53 101-56 108 0 13-22 24-43 59-42 82 1 51 116 57 194h-49v-107c-1-25-5-48-29-50" id="an"/><path d="M88-194c31-1 46 15 58 34l-1-101h50l1 261h-48c-2-10 0-23-3-31C134-8 116 4 84 4 32 4 16-41 15-95c0-56 19-97 73-99zm17 164c33 0 40-30 41-66 1-37-9-64-41-64s-38 30-39 65c0 43 13 65 39 65" id="ao"/><path d="M128 0H69L1-190h53L99-40l48-150h52" id="ap"/><path d="M115-3C79 11 28 4 28-45v-112H4v-33h27l15-45h31v45h36v33H77v99c-1 23 16 31 38 25v30" id="aq"/><path d="M133-34C117-15 103 5 69 4 32 3 11-16 11-54c-1-60 55-63 116-61 1-26-3-47-28-47-18 1-26 9-28 27l-52-2c7-38 36-58 82-57s74 22 75 68l1 82c-1 14 12 18 25 15v27c-30 8-71 5-69-32zm-48 3c29 0 43-24 42-57-32 0-66-3-65 30 0 17 8 27 23 27" id="ar"/><path d="M195-6C206 82 75 100 31 46c-4-6-6-13-8-21l49-6c3 16 16 24 34 25 40 0 42-37 40-79-11 22-30 35-61 35-53 0-70-43-70-97 0-56 18-96 73-97 30 0 46 14 59 34l2-30h47zm-90-29c32 0 41-27 41-63 0-35-9-62-40-62-32 0-39 29-40 63 0 36 9 62 39 62" id="as"/><g id="j"><use transform="matrix(0.061711726728228375,0,0,0.061711726728228375,0,0)" xlink:href="#ak"/><use transform="matrix(0.061711726728228375,0,0,0.061711726728228375,13.514868153482015,0)" xlink:href="#al"/><use transform="matrix(0.061711726728228375,0,0,0.061711726728228375,22.15450989543399,0)" xlink:href="#am"/><use transform="matrix(0.061711726728228375,0,0,0.061711726728228375,34.496855241079665,0)" xlink:href="#an"/><use transform="matrix(0.061711726728228375,0,0,0.061711726728228375,54.244607794112746,0)" xlink:href="#ao"/><use transform="matrix(0.061711726728228375,0,0,0.061711726728228375,67.75947594759477,0)" xlink:href="#ap"/><use transform="matrix(0.061711726728228375,0,0,0.061711726728228375,80.10182129324045,0)" xlink:href="#am"/><use transform="matrix(0.061711726728228375,0,0,0.061711726728228375,92.44416663888612,0)" xlink:href="#al"/><use transform="matrix(0.061711726728228375,0,0,0.061711726728228375,101.0838083808381,0)" xlink:href="#aq"/><use transform="matrix(0.061711726728228375,0,0,0.061711726728228375,108.42750386149727,0)" xlink:href="#al"/><use transform="matrix(0.061711726728228375,0,0,0.061711726728228375,117.06714560344925,0)" xlink:href="#ar"/><use transform="matrix(0.061711726728228375,0,0,0.061711726728228375,129.40949094909493,0)" xlink:href="#as"/></g><path d="M25-224v-37h50v37H25zM25 0v-190h50V0H25" id="at"/><path d="M25 0v-261h50V0H25" id="au"/><path d="M137-138c1-29-70-34-71-4 15 46 118 7 119 86 1 83-164 76-172 9l43-7c4 19 20 25 44 25 33 8 57-30 24-41C81-84 22-81 20-136c-2-80 154-74 161-7" id="av"/><path d="M135-194c87-1 58 113 63 194h-50c-7-57 23-157-34-157-59 0-34 97-39 157H25l-1-190h47c2 12-1 28 3 38 12-26 28-41 61-42" id="aw"/><g id="k"><use transform="matrix(0.061711726728228375,0,0,0.061711726728228375,0,0)" xlink:href="#ao"/><use transform="matrix(0.061711726728228375,0,0,0.061711726728228375,13.514868153482015,0)" xlink:href="#at"/><use transform="matrix(0.061711726728228375,0,0,0.061711726728228375,19.686040826304854,0)" xlink:href="#as"/><use transform="matrix(0.061711726728228375,0,0,0.061711726728228375,33.20090897978687,0)" xlink:href="#at"/><use transform="matrix(0.061711726728228375,0,0,0.061711726728228375,39.37208165260971,0)" xlink:href="#aq"/><use transform="matrix(0.061711726728228375,0,0,0.061711726728228375,46.71577713326889,0)" xlink:href="#ar"/><use transform="matrix(0.061711726728228375,0,0,0.061711726728228375,59.05812247891456,0)" xlink:href="#au"/><use transform="matrix(0.061711726728228375,0,0,0.061711726728228375,65.2292951517374,0)" xlink:href="#at"/><use transform="matrix(0.061711726728228375,0,0,0.061711726728228375,71.40046782456024,0)" xlink:href="#av"/><use transform="matrix(0.061711726728228375,0,0,0.061711726728228375,83.74281317020592,0)" xlink:href="#at"/><use transform="matrix(0.061711726728228375,0,0,0.061711726728228375,89.91398584302875,0)" xlink:href="#am"/><use transform="matrix(0.061711726728228375,0,0,0.061711726728228375,102.25633118867444,0)" xlink:href="#al"/><use transform="matrix(0.061711726728228375,0,0,0.061711726728228375,110.89597293062641,0)" xlink:href="#am"/><use transform="matrix(0.061711726728228375,0,0,0.061711726728228375,123.23831827627208,0)" xlink:href="#aw"/></g><g id="l"><use transform="matrix(0.061711726728228375,0,0,0.061711726728228375,0,0)" xlink:href="#ak"/><use transform="matrix(0.061711726728228375,0,0,0.061711726728228375,13.514868153482015,0)" xlink:href="#al"/><use transform="matrix(0.061711726728228375,0,0,0.061711726728228375,22.15450989543399,0)" xlink:href="#am"/><use transform="matrix(0.061711726728228375,0,0,0.061711726728228375,34.496855241079665,0)" xlink:href="#an"/><use transform="matrix(0.061711726728228375,0,0,0.061711726728228375,54.244607794112746,0)" xlink:href="#ao"/><use transform="matrix(0.061711726728228375,0,0,0.061711726728228375,67.75947594759477,0)" xlink:href="#ap"/><use transform="matrix(0.061711726728228375,0,0,0.061711726728228375,80.10182129324045,0)" xlink:href="#am"/><use transform="matrix(0.061711726728228375,0,0,0.061711726728228375,92.44416663888612,0)" xlink:href="#al"/><use transform="matrix(0.061711726728228375,0,0,0.061711726728228375,101.0838083808381,0)" xlink:href="#aq"/><use transform="matrix(0.061711726728228375,0,0,0.061711726728228375,108.42750386149727,0)" xlink:href="#al"/><use transform="matrix(0.061711726728228375,0,0,0.061711726728228375,117.06714560344925,0)" xlink:href="#ar"/><use transform="matrix(0.061711726728228375,0,0,0.061711726728228375,129.40949094909493,0)" xlink:href="#as"/></g><path d="M231 0h-52l-39-155L100 0H48L-1-190h46L77-45c9-52 24-97 36-145h53l37 145 32-145h46" id="ax"/><g id="m"><use transform="matrix(0.061711726728228375,0,0,0.061711726728228375,0,0)" xlink:href="#ax"/><use transform="matrix(0.061711726728228375,0,0,0.061711726728228375,17.279283483903946,0)" xlink:href="#at"/><use transform="matrix(0.061711726728228375,0,0,0.061711726728228375,23.450456156726784,0)" xlink:href="#al"/><use transform="matrix(0.061711726728228375,0,0,0.061711726728228375,32.090097898678756,0)" xlink:href="#ao"/></g><path d="M135-194c52 0 70 43 70 98 0 56-19 99-73 100-30 1-46-15-58-35L72 0H24l1-261h50v104c11-23 29-37 60-37zM114-30c31 0 40-27 40-66 0-37-7-63-39-63s-41 28-41 65c0 36 8 64 40 64" id="ay"/><g id="n"><use transform="matrix(0.061711726728228375,0,0,0.061711726728228375,0,0)" xlink:href="#ap"/><use transform="matrix(0.061711726728228375,0,0,0.061711726728228375,12.342345345645676,0)" xlink:href="#am"/><use transform="matrix(0.061711726728228375,0,0,0.061711726728228375,24.68469069129135,0)" xlink:href="#al"/><use transform="matrix(0.061711726728228375,0,0,0.061711726728228375,33.32433243324333,0)" xlink:href="#ar"/><use transform="matrix(0.061711726728228375,0,0,0.061711726728228375,45.666677778889,0)" xlink:href="#al"/><use transform="matrix(0.061711726728228375,0,0,0.061711726728228375,54.30631952084097,0)" xlink:href="#ay"/><use transform="matrix(0.061711726728228375,0,0,0.061711726728228375,67.82118767432299,0)" xlink:href="#am"/><use transform="matrix(0.061711726728228375,0,0,0.061711726728228375,80.16353301996867,0)" xlink:href="#at"/><use transform="matrix(0.061711726728228375,0,0,0.061711726728228375,86.3347056927915,0)" xlink:href="#aq"/><use transform="matrix(0.061711726728228375,0,0,0.061711726728228375,93.67840117345068,0)" xlink:href="#am"/><use transform="matrix(0.061711726728228375,0,0,0.061711726728228375,106.02074651909635,0)" xlink:href="#aq"/></g><g id="o"><use transform="matrix(0.061711726728228375,0,0,0.061711726728228375,0,0)" xlink:href="#ap"/><use transform="matrix(0.061711726728228375,0,0,0.061711726728228375,12.342345345645676,0)" xlink:href="#am"/><use transform="matrix(0.061711726728228375,0,0,0.061711726728228375,24.68469069129135,0)" xlink:href="#al"/><use transform="matrix(0.061711726728228375,0,0,0.061711726728228375,33.32433243324333,0)" xlink:href="#ar"/><use transform="matrix(0.061711726728228375,0,0,0.061711726728228375,45.666677778889,0)" xlink:href="#al"/><use transform="matrix(0.061711726728228375,0,0,0.061711726728228375,54.30631952084097,0)" xlink:href="#ay"/><use transform="matrix(0.061711726728228375,0,0,0.061711726728228375,67.82118767432299,0)" xlink:href="#am"/><use transform="matrix(0.061711726728228375,0,0,0.061711726728228375,80.16353301996867,0)" xlink:href="#at"/><use transform="matrix(0.061711726728228375,0,0,0.061711726728228375,86.3347056927915,0)" xlink:href="#aq"/><use transform="matrix(0.061711726728228375,0,0,0.061711726728228375,93.67840117345068,0)" xlink:href="#am"/></g><g id="p"><use transform="matrix(0.061711726728228375,0,0,0.061711726728228375,0,0)" xlink:href="#ak"/><use transform="matrix(0.061711726728228375,0,0,0.061711726728228375,13.514868153482015,0)" xlink:href="#al"/><use transform="matrix(0.061711726728228375,0,0,0.061711726728228375,22.15450989543399,0)" xlink:href="#am"/><use transform="matrix(0.061711726728228375,0,0,0.061711726728228375,34.496855241079665,0)" xlink:href="#an"/><use transform="matrix(0.061711726728228375,0,0,0.061711726728228375,54.244607794112746,0)" xlink:href="#ao"/><use transform="matrix(0.061711726728228375,0,0,0.061711726728228375,67.75947594759477,0)" xlink:href="#ap"/><use transform="matrix(0.061711726728228375,0,0,0.061711726728228375,80.10182129324045,0)" xlink:href="#am"/><use transform="matrix(0.061711726728228375,0,0,0.061711726728228375,92.44416663888612,0)" xlink:href="#al"/><use transform="matrix(0.061711726728228375,0,0,0.061711726728228375,101.0838083808381,0)" xlink:href="#aq"/><use transform="matrix(0.061711726728228375,0,0,0.061711726728228375,108.42750386149727,0)" xlink:href="#al"/><use transform="matrix(0.061711726728228375,0,0,0.061711726728228375,117.06714560344925,0)" xlink:href="#ar"/><use transform="matrix(0.061711726728228375,0,0,0.061711726728228375,129.40949094909493,0)" xlink:href="#as"/></g><path d="M147 0L96-86 75-71V0H25v-261h50v150l67-79h53l-66 74L201 0h-54" id="az"/><g id="q"><use transform="matrix(0.061711726728228375,0,0,0.061711726728228375,0,0)" xlink:href="#am"/><use transform="matrix(0.061711726728228375,0,0,0.061711726728228375,12.342345345645676,0)" xlink:href="#al"/><use transform="matrix(0.061711726728228375,0,0,0.061711726728228375,20.98198708759765,0)" xlink:href="#az"/><use transform="matrix(0.061711726728228375,0,0,0.061711726728228375,33.32433243324333,0)" xlink:href="#am"/><use transform="matrix(0.061711726728228375,0,0,0.061711726728228375,45.666677778889,0)" xlink:href="#aw"/><use transform="matrix(0.061711726728228375,0,0,0.061711726728228375,59.181545932371016,0)" xlink:href="#aw"/><use transform="matrix(0.061711726728228375,0,0,0.061711726728228375,72.69641408585304,0)" xlink:href="#am"/></g><path d="M136-208V0H84v-208H4v-40h212v40h-80" id="aA"/><path d="M144 0l-44-69L55 0H2l70-98-66-92h53l41 62 40-62h54l-67 91 71 99h-54" id="aB"/><g id="r"><use transform="matrix(0.061711726728228375,0,0,0.061711726728228375,0,0)" xlink:href="#aA"/><use transform="matrix(0.061711726728228375,0,0,0.061711726728228375,11.848651531819849,0)" xlink:href="#am"/><use transform="matrix(0.061711726728228375,0,0,0.061711726728228375,24.190996877465523,0)" xlink:href="#aB"/><use transform="matrix(0.061711726728228375,0,0,0.061711726728228375,36.5333422231112,0)" xlink:href="#aq"/></g><path d="M85 4C-2 5 27-109 22-190h50c7 57-23 150 33 157 60-5 35-97 40-157h50l1 190h-47c-2-12 1-28-3-38-12 25-28 42-61 42" id="aC"/><g id="s"><use transform="matrix(0.061711726728228375,0,0,0.061711726728228375,0,0)" xlink:href="#av"/><use transform="matrix(0.061711726728228375,0,0,0.061711726728228375,12.342345345645676,0)" xlink:href="#aq"/><use transform="matrix(0.061711726728228375,0,0,0.061711726728228375,19.686040826304854,0)" xlink:href="#al"/><use transform="matrix(0.061711726728228375,0,0,0.061711726728228375,28.325682568256827,0)" xlink:href="#aC"/><use transform="matrix(0.061711726728228375,0,0,0.061711726728228375,41.84055072173884,0)" xlink:href="#az"/><use transform="matrix(0.061711726728228375,0,0,0.061711726728228375,54.18289606738452,0)" xlink:href="#aq"/><use transform="matrix(0.061711726728228375,0,0,0.061711726728228375,61.5265915480437,0)" xlink:href="#aC"/><use transform="matrix(0.061711726728228375,0,0,0.061711726728228375,75.04145970152571,0)" xlink:href="#al"/><use transform="matrix(0.061711726728228375,0,0,0.061711726728228375,83.68110144347769,0)" xlink:href="#at"/><use transform="matrix(0.061711726728228375,0,0,0.061711726728228375,89.85227411630052,0)" xlink:href="#am"/><use transform="matrix(0.061711726728228375,0,0,0.061711726728228375,102.19461946194619,0)" xlink:href="#al"/><use transform="matrix(0.061711726728228375,0,0,0.061711726728228375,110.83426120389817,0)" xlink:href="#am"/></g><path d="M24 0v-248h52V0H24" id="aD"/><path d="M121-226c-27-7-43 5-38 36h38v33H83V0H34v-157H6v-33h28c-9-59 32-81 87-68v32" id="aE"/><path d="M110-194c64 0 96 36 96 99 0 64-35 99-97 99-61 0-95-36-95-99 0-62 34-99 96-99zm-1 164c35 0 45-28 45-65 0-40-10-65-43-65-34 0-45 26-45 65 0 36 10 65 43 65" id="aF"/><g id="t"><use transform="matrix(0.061711726728228375,0,0,0.061711726728228375,0,0)" xlink:href="#aD"/><use transform="matrix(0.061711726728228375,0,0,0.061711726728228375,6.171172672822838,0)" xlink:href="#aw"/><use transform="matrix(0.061711726728228375,0,0,0.061711726728228375,19.686040826304854,0)" xlink:href="#aE"/><use transform="matrix(0.061711726728228375,0,0,0.061711726728228375,27.029736306964033,0)" xlink:href="#aF"/><use transform="matrix(0.061711726728228375,0,0,0.061711726728228375,40.544604460446045,0)" xlink:href="#al"/><use transform="matrix(0.061711726728228375,0,0,0.061711726728228375,49.184246202398015,0)" xlink:href="#an"/><use transform="matrix(0.061711726728228375,0,0,0.061711726728228375,68.9319987554311,0)" xlink:href="#ar"/><use transform="matrix(0.061711726728228375,0,0,0.061711726728228375,81.27434410107676,0)" xlink:href="#aq"/><use transform="matrix(0.061711726728228375,0,0,0.061711726728228375,88.61803958173594,0)" xlink:href="#at"/><use transform="matrix(0.061711726728228375,0,0,0.061711726728228375,94.78921225455878,0)" xlink:href="#aF"/><use transform="matrix(0.061711726728228375,0,0,0.061711726728228375,108.30408040804079,0)" xlink:href="#aw"/><use transform="matrix(0.061711726728228375,0,0,0.061711726728228375,121.8189485615228,0)" xlink:href="#am"/><use transform="matrix(0.061711726728228375,0,0,0.061711726728228375,134.16129390716847,0)" xlink:href="#aw"/></g><g id="u"><use transform="matrix(0.061711726728228375,0,0,0.061711726728228375,0,0)" xlink:href="#au"/><use transform="matrix(0.061711726728228375,0,0,0.061711726728228375,6.171172672822838,0)" xlink:href="#am"/><use transform="matrix(0.061711726728228375,0,0,0.061711726728228375,18.513518018468513,0)" xlink:href="#as"/><use transform="matrix(0.061711726728228375,0,0,0.061711726728228375,32.02838617195053,0)" xlink:href="#am"/></g><g id="v"><use transform="matrix(0.061711726728228375,0,0,0.061711726728228375,0,0)" xlink:href="#ak"/><use transform="matrix(0.061711726728228375,0,0,0.061711726728228375,13.514868153482015,0)" xlink:href="#al"/><use transform="matrix(0.061711726728228375,0,0,0.061711726728228375,22.15450989543399,0)" xlink:href="#am"/><use transform="matrix(0.061711726728228375,0,0,0.061711726728228375,34.496855241079665,0)" xlink:href="#an"/><use transform="matrix(0.061711726728228375,0,0,0.061711726728228375,54.244607794112746,0)" xlink:href="#ao"/><use transform="matrix(0.061711726728228375,0,0,0.061711726728228375,67.75947594759477,0)" xlink:href="#ap"/><use transform="matrix(0.061711726728228375,0,0,0.061711726728228375,80.10182129324045,0)" xlink:href="#am"/><use transform="matrix(0.061711726728228375,0,0,0.061711726728228375,92.44416663888612,0)" xlink:href="#al"/><use transform="matrix(0.061711726728228375,0,0,0.061711726728228375,101.0838083808381,0)" xlink:href="#aq"/><use transform="matrix(0.061711726728228375,0,0,0.061711726728228375,108.42750386149727,0)" xlink:href="#al"/><use transform="matrix(0.061711726728228375,0,0,0.061711726728228375,117.06714560344925,0)" xlink:href="#ar"/><use transform="matrix(0.061711726728228375,0,0,0.061711726728228375,129.40949094909493,0)" xlink:href="#as"/></g><g id="w"><use transform="matrix(0.061711726728228375,0,0,0.061711726728228375,0,0)" xlink:href="#ar"/><use transform="matrix(0.061711726728228375,0,0,0.061711726728228375,12.342345345645676,0)" xlink:href="#aw"/></g><path d="M190-63c-7 42-38 67-86 67-59 0-84-38-90-98-12-110 154-137 174-36l-49 2c-2-19-15-32-35-32-30 0-35 28-38 64-6 74 65 87 74 30" id="aG"/><path d="M114-157C55-157 80-60 75 0H25v-261h50l-1 109c12-26 28-41 61-42 86-1 58 113 63 194h-50c-7-57 23-157-34-157" id="aH"/><g id="x"><use transform="matrix(0.061711726728228375,0,0,0.061711726728228375,0,0)" xlink:href="#ar"/><use transform="matrix(0.061711726728228375,0,0,0.061711726728228375,12.342345345645676,0)" xlink:href="#al"/><use transform="matrix(0.061711726728228375,0,0,0.061711726728228375,20.98198708759765,0)" xlink:href="#aG"/><use transform="matrix(0.061711726728228375,0,0,0.061711726728228375,33.32433243324333,0)" xlink:href="#aH"/><use transform="matrix(0.061711726728228375,0,0,0.061711726728228375,46.83920058672534,0)" xlink:href="#at"/><use transform="matrix(0.061711726728228375,0,0,0.061711726728228375,53.010373259548174,0)" xlink:href="#ap"/><use transform="matrix(0.061711726728228375,0,0,0.061711726728228375,65.35271860519384,0)" xlink:href="#at"/><use transform="matrix(0.061711726728228375,0,0,0.061711726728228375,71.52389127801668,0)" xlink:href="#am"/><use transform="matrix(0.061711726728228375,0,0,0.061711726728228375,83.86623662366236,0)" xlink:href="#al"/><use transform="matrix(0.061711726728228375,0,0,0.061711726728228375,92.50587836561434,0)" xlink:href="#am"/></g><path d="M135-194c53 0 70 44 70 98 0 56-19 98-73 100-31 1-45-17-59-34 3 33 2 69 2 105H25l-1-265h48c2 10 0 23 3 31 11-24 29-35 60-35zM114-30c33 0 39-31 40-66 0-38-9-64-40-64-56 0-55 130 0 130" id="aI"/><g id="y"><use transform="matrix(0.061711726728228375,0,0,0.061711726728228375,0,0)" xlink:href="#ak"/><use transform="matrix(0.061711726728228375,0,0,0.061711726728228375,13.514868153482015,0)" xlink:href="#al"/><use transform="matrix(0.061711726728228375,0,0,0.061711726728228375,22.15450989543399,0)" xlink:href="#am"/><use transform="matrix(0.061711726728228375,0,0,0.061711726728228375,34.496855241079665,0)" xlink:href="#an"/><use transform="matrix(0.061711726728228375,0,0,0.061711726728228375,54.244607794112746,0)" xlink:href="#ao"/><use transform="matrix(0.061711726728228375,0,0,0.061711726728228375,67.75947594759477,0)" xlink:href="#ap"/><use transform="matrix(0.061711726728228375,0,0,0.061711726728228375,80.10182129324045,0)" xlink:href="#am"/><use transform="matrix(0.061711726728228375,0,0,0.061711726728228375,92.44416663888612,0)" xlink:href="#al"/><use transform="matrix(0.061711726728228375,0,0,0.061711726728228375,101.0838083808381,0)" xlink:href="#aq"/><use transform="matrix(0.061711726728228375,0,0,0.061711726728228375,108.42750386149727,0)" xlink:href="#al"/><use transform="matrix(0.061711726728228375,0,0,0.061711726728228375,117.06714560344925,0)" xlink:href="#ar"/><use transform="matrix(0.061711726728228375,0,0,0.061711726728228375,129.40949094909493,0)" xlink:href="#as"/><use transform="matrix(0.061711726728228375,0,0,0.061711726728228375,142.92435910257694,0)" xlink:href="#av"/><use transform="matrix(0.061711726728228375,0,0,0.061711726728228375,155.2667044482226,0)" xlink:href="#az"/><use transform="matrix(0.061711726728228375,0,0,0.061711726728228375,167.60904979386828,0)" xlink:href="#aF"/><use transform="matrix(0.061711726728228375,0,0,0.061711726728228375,181.1239179473503,0)" xlink:href="#aI"/><use transform="matrix(0.061711726728228375,0,0,0.061711726728228375,194.6387861008323,0)" xlink:href="#at"/><use transform="matrix(0.061711726728228375,0,0,0.061711726728228375,200.80995877365515,0)" xlink:href="#am"/></g><g id="z"><use transform="matrix(0.061711726728228375,0,0,0.061711726728228375,0,0)" xlink:href="#al"/><use transform="matrix(0.061711726728228375,0,0,0.061711726728228375,8.639641741951973,0)" xlink:href="#am"/><use transform="matrix(0.061711726728228375,0,0,0.061711726728228375,20.98198708759765,0)" xlink:href="#aG"/><use transform="matrix(0.061711726728228375,0,0,0.061711726728228375,33.32433243324333,0)" xlink:href="#aH"/><use transform="matrix(0.061711726728228375,0,0,0.061711726728228375,46.83920058672534,0)" xlink:href="#aw"/><use transform="matrix(0.061711726728228375,0,0,0.061711726728228375,60.35406874020735,0)" xlink:href="#am"/></g><path d="M67-125c0 54 23 88 75 88 28 0 53-7 68-21v-34h-60v-39h108v91C232-14 192 4 140 4 58 4 20-42 15-125 8-236 126-280 215-234c19 10 29 26 37 47l-47 15c-11-23-29-39-63-39-53 1-75 33-75 86" id="aJ"/><g id="A"><use transform="matrix(0.061711726728228375,0,0,0.061711726728228375,0,0)" xlink:href="#aJ"/><use transform="matrix(0.061711726728228375,0,0,0.061711726728228375,17.279283483903946,0)" xlink:href="#am"/><use transform="matrix(0.061711726728228375,0,0,0.061711726728228375,29.62162882954962,0)" xlink:href="#as"/><use transform="matrix(0.061711726728228375,0,0,0.061711726728228375,43.136496983031634,0)" xlink:href="#am"/><use transform="matrix(0.061711726728228375,0,0,0.061711726728228375,55.47884232867731,0)" xlink:href="#aw"/><use transform="matrix(0.061711726728228375,0,0,0.061711726728228375,68.99371048215933,0)" xlink:href="#aF"/><use transform="matrix(0.061711726728228375,0,0,0.061711726728228375,82.50857863564134,0)" xlink:href="#aE"/><use transform="matrix(0.061711726728228375,0,0,0.061711726728228375,89.85227411630052,0)" xlink:href="#aE"/><use transform="matrix(0.061711726728228375,0,0,0.061711726728228375,97.1959695969597,0)" xlink:href="#am"/><use transform="matrix(0.061711726728228375,0,0,0.061711726728228375,109.53831494260538,0)" xlink:href="#al"/><use transform="matrix(0.061711726728228375,0,0,0.061711726728228375,118.17795668455736,0)" xlink:href="#aq"/><use transform="matrix(0.061711726728228375,0,0,0.061711726728228375,125.52165216521654,0)" xlink:href="#am"/></g><path d="M115-194c55 1 70 41 70 98S169 2 115 4C84 4 66-9 55-30l1 105H24l-1-265h31l2 30c10-21 28-34 59-34zm-8 174c40 0 45-34 45-75s-6-73-45-74c-42 0-51 32-51 76 0 43 10 73 51 73" id="aK"/><g id="B"><use transform="matrix(0.07407407407407407,0,0,0.07407407407407407,0,0)" xlink:href="#ah"/><use transform="matrix(0.07407407407407407,0,0,0.07407407407407407,20.74074074074074,0)" xlink:href="#aK"/><use transform="matrix(0.07407407407407407,0,0,0.07407407407407407,35.55555555555556,0)" xlink:href="#W"/></g><path d="M26 75v-336h71v23H56V52h41v23H26" id="aL"/><g id="C"><use transform="matrix(0.07407407407407407,0,0,0.07407407407407407,0,0)" xlink:href="#aL"/><use transform="matrix(0.07407407407407407,0,0,0.07407407407407407,7.4074074074074066,0)" xlink:href="#ah"/><use transform="matrix(0.07407407407407407,0,0,0.07407407407407407,28.148148148148145,0)" xlink:href="#ai"/><use transform="matrix(0.07407407407407407,0,0,0.07407407407407407,35.03703703703703,0)" xlink:href="#ai"/><use transform="matrix(0.07407407407407407,0,0,0.07407407407407407,42.444444444444436,0)" xlink:href="#L"/><use transform="matrix(0.07407407407407407,0,0,0.07407407407407407,57.25925925925926,0)" xlink:href="#M"/><use transform="matrix(0.07407407407407407,0,0,0.07407407407407407,66.07407407407406,0)" xlink:href="#W"/><use transform="matrix(0.07407407407407407,0,0,0.07407407407407407,73.48148148148147,0)" xlink:href="#L"/></g><path d="M205 0l-28-72H64L36 0H1l101-248h38L239 0h-34zm-38-99l-47-123c-12 45-31 82-46 123h93" id="aM"/><path d="M24 0v-261h32V0H24" id="aN"/><path d="M3 75V52h41v-290H3v-23h71V75H3" id="aO"/><g id="D"><use transform="matrix(0.07407407407407407,0,0,0.07407407407407407,0,0)" xlink:href="#aM"/><use transform="matrix(0.07407407407407407,0,0,0.07407407407407407,17.77777777777778,0)" xlink:href="#V"/><use transform="matrix(0.07407407407407407,0,0,0.07407407407407407,32.592592592592595,0)" xlink:href="#ab"/><use transform="matrix(0.07407407407407407,0,0,0.07407407407407407,47.407407407407405,0)" xlink:href="#L"/><use transform="matrix(0.07407407407407407,0,0,0.07407407407407407,62.22222222222221,0)" xlink:href="#aN"/><use transform="matrix(0.07407407407407407,0,0,0.07407407407407407,68.07407407407406,0)" xlink:href="#L"/><use transform="matrix(0.07407407407407407,0,0,0.07407407407407407,82.88888888888887,0)" xlink:href="#ab"/><use transform="matrix(0.07407407407407407,0,0,0.07407407407407407,97.70370370370368,0)" xlink:href="#W"/><use transform="matrix(0.07407407407407407,0,0,0.07407407407407407,105.11111111111109,0)" xlink:href="#aO"/></g><path d="M140-251c80 0 125 45 125 126S219 4 139 4C58 4 15-44 15-125s44-126 125-126zm-1 214c52 0 73-35 73-88 0-50-21-86-72-86-52 0-73 35-73 86s22 88 72 88" id="aP"/><path d="M123 10C108 53 80 86 19 72V37c35 8 53-11 59-39L3-190h52l48 148c12-52 28-100 44-148h51" id="aQ"/><g id="E"><use transform="matrix(0.061711726728228375,0,0,0.061711726728228375,0,0)" xlink:href="#aP"/><use transform="matrix(0.061711726728228375,0,0,0.061711726728228375,17.279283483903946,0)" xlink:href="#aI"/><use transform="matrix(0.061711726728228375,0,0,0.061711726728228375,30.79415163738596,0)" xlink:href="#aI"/><use transform="matrix(0.061711726728228375,0,0,0.061711726728228375,44.30901979086797,0)" xlink:href="#aF"/><use transform="matrix(0.061711726728228375,0,0,0.061711726728228375,57.823887944349984,0)" xlink:href="#al"/><use transform="matrix(0.061711726728228375,0,0,0.061711726728228375,66.46352968630195,0)" xlink:href="#aq"/><use transform="matrix(0.061711726728228375,0,0,0.061711726728228375,73.80722516696113,0)" xlink:href="#aC"/><use transform="matrix(0.061711726728228375,0,0,0.061711726728228375,87.32209332044314,0)" xlink:href="#aw"/><use transform="matrix(0.061711726728228375,0,0,0.061711726728228375,100.83696147392516,0)" xlink:href="#at"/><use transform="matrix(0.061711726728228375,0,0,0.061711726728228375,107.00813414674799,0)" xlink:href="#aq"/><use transform="matrix(0.061711726728228375,0,0,0.061711726728228375,114.35182962740717,0)" xlink:href="#aQ"/></g><path d="M12 0v-35l95-120H19v-35h142v35L67-36h103V0H12" id="aR"/><g id="F"><use transform="matrix(0.061711726728228375,0,0,0.061711726728228375,0,0)" xlink:href="#aR"/><use transform="matrix(0.061711726728228375,0,0,0.061711726728228375,11.108110811081108,0)" xlink:href="#aC"/></g><g id="G"><use transform="matrix(0.061711726728228375,0,0,0.061711726728228375,0,0)" xlink:href="#aP"/><use transform="matrix(0.061711726728228375,0,0,0.061711726728228375,17.279283483903946,0)" xlink:href="#aE"/><use transform="matrix(0.061711726728228375,0,0,0.061711726728228375,24.622978964563124,0)" xlink:href="#aE"/><use transform="matrix(0.061711726728228375,0,0,0.061711726728228375,31.966674445222306,0)" xlink:href="#am"/><use transform="matrix(0.061711726728228375,0,0,0.061711726728228375,44.30901979086798,0)" xlink:href="#al"/><use transform="matrix(0.061711726728228375,0,0,0.061711726728228375,52.948661532819955,0)" xlink:href="#aq"/><use transform="matrix(0.061711726728228375,0,0,0.061711726728228375,60.29235701347913,0)" xlink:href="#am"/></g><path d="M147 0H94L2-248h55l64 206c17-72 42-137 63-206h54" id="aS"/><g id="H"><use transform="matrix(0.061711726728228375,0,0,0.061711726728228375,0,0)" xlink:href="#aS"/><use transform="matrix(0.061711726728228375,0,0,0.061711726728228375,13.576579880210243,0)" xlink:href="#am"/><use transform="matrix(0.061711726728228375,0,0,0.061711726728228375,25.91892522585592,0)" xlink:href="#al"/><use transform="matrix(0.061711726728228375,0,0,0.061711726728228375,34.55856696780789,0)" xlink:href="#ar"/><use transform="matrix(0.061711726728228375,0,0,0.061711726728228375,46.90091231345357,0)" xlink:href="#al"/><use transform="matrix(0.061711726728228375,0,0,0.061711726728228375,55.540554055405536,0)" xlink:href="#ay"/><use transform="matrix(0.061711726728228375,0,0,0.061711726728228375,69.05542220888755,0)" xlink:href="#am"/><use transform="matrix(0.061711726728228375,0,0,0.061711726728228375,81.39776755453323,0)" xlink:href="#at"/><use transform="matrix(0.061711726728228375,0,0,0.061711726728228375,87.56894022735607,0)" xlink:href="#aq"/><use transform="matrix(0.061711726728228375,0,0,0.061711726728228375,94.91263570801524,0)" xlink:href="#aC"/><use transform="matrix(0.061711726728228375,0,0,0.061711726728228375,108.42750386149726,0)" xlink:href="#aw"/><use transform="matrix(0.061711726728228375,0,0,0.061711726728228375,121.94237201497927,0)" xlink:href="#as"/></g><g id="I"><use transform="matrix(0.061711726728228375,0,0,0.061711726728228375,0,0)" xlink:href="#am"/><use transform="matrix(0.061711726728228375,0,0,0.061711726728228375,12.342345345645676,0)" xlink:href="#al"/><use transform="matrix(0.061711726728228375,0,0,0.061711726728228375,20.98198708759765,0)" xlink:href="#aE"/><use transform="matrix(0.061711726728228375,0,0,0.061711726728228375,28.325682568256823,0)" xlink:href="#aF"/><use transform="matrix(0.061711726728228375,0,0,0.061711726728228375,41.840550721738836,0)" xlink:href="#au"/><use transform="matrix(0.061711726728228375,0,0,0.061711726728228375,48.01172339456167,0)" xlink:href="#as"/><use transform="matrix(0.061711726728228375,0,0,0.061711726728228375,61.52659154804368,0)" xlink:href="#al"/><use transform="matrix(0.061711726728228375,0,0,0.061711726728228375,70.16623328999566,0)" xlink:href="#am"/><use transform="matrix(0.061711726728228375,0,0,0.061711726728228375,82.50857863564133,0)" xlink:href="#at"/><use transform="matrix(0.061711726728228375,0,0,0.061711726728228375,88.67975130846416,0)" xlink:href="#aG"/><use transform="matrix(0.061711726728228375,0,0,0.061711726728228375,101.02209665410984,0)" xlink:href="#aH"/></g></defs></g></svg>